<?xml version="1.0" encoding="utf-8"?>
<!-- Generator: Adobe Illustrator 21.0.0, SVG Export Plug-In . SVG Version: 6.00 Build 0)  -->
<svg version="1.1" baseProfile="tiny" id="Capa_1" xmlns="http://www.w3.org/2000/svg" xmlns:xlink="http://www.w3.org/1999/xlink"
	 x="0px" y="0px" viewBox="0 0 50 50" overflow="scroll" xml:space="preserve">
<g>
	<polygon fill="#C64D28" points="24.8,20.2 23.7,20.2 23.7,26.5 23.7,28.2 24.8,28.2 31.6,28.2 31.6,26.5 24.8,26.5 	"/>
	
		<rect x="14.2" y="12.8" transform="matrix(0.8321 -0.5547 0.5547 0.8321 -4.708 11.2793)" fill="#C64D28" width="4.1" height="1.1"/>
	<rect x="32.8" y="11.4" transform="matrix(0.5547 -0.8321 0.8321 0.5547 3.6878 33.72)" fill="#C64D28" width="1.1" height="4.1"/>
	<path fill="#C64D28" d="M25.6,13.3v-2.2h2.8V10h-6.8v1.1h2.8v2.2l-11.6,6.4v13.5L25,40l12.2-6.7V19.7L25.6,13.3z M35.5,32.3
		L25,38.1l-10.5-5.8V20.7L25,15l10.5,5.8V32.3z"/>
</g>
</svg>
