<?xml version="1.0" encoding="utf-8"?>
<!-- Generator: Adobe Illustrator 21.0.0, SVG Export Plug-In . SVG Version: 6.00 Build 0)  -->
<svg version="1.1" baseProfile="tiny" id="Capa_1" xmlns="http://www.w3.org/2000/svg" xmlns:xlink="http://www.w3.org/1999/xlink"
	 x="0px" y="0px" viewBox="0 0 50 50" overflow="scroll" xml:space="preserve">
<g>
	<path d="M43.4,5C31.1,5,18.9,5,6.6,5C5.1,5,5,5.1,5,6.6c0,12.3,0,24.6,0,36.8C5,44.9,5.1,45,6.6,45c6.1,0,12.2,0,18.3,0
		c6.2,0,12.4,0,18.5,0c1.4,0,1.6-0.2,1.6-1.6c0-12.3,0-24.6,0-36.8C45,5.1,44.9,5,43.4,5z M43.3,43.4c-12.3,0-24.5,0-36.7,0
		c0-12.2,0-24.4,0-36.7c12.2,0,24.4,0,36.7,0C43.3,18.9,43.3,31.1,43.3,43.4z"/>
	<path d="M22.8,21.9c0.1,0.1,0.4,0.1,0.6,0.1c0,3.6,0,7,0,10.5c-0.3,0.1-0.7,0-0.8,0.1c-0.2,0.2-0.6,0.6-0.5,0.8
		c0.1,0.3,0.4,0.7,0.7,0.7c1.5,0.1,3.1,0.1,4.6,0c0.2,0,0.7-0.4,0.7-0.6c0-0.3-0.3-0.7-0.5-0.9c-0.2-0.1-0.5-0.1-0.9-0.2
		c0-3,0-5.9,0-8.8c0-3.9,0.5-3.3-3.5-3.3c-0.1,0-0.2,0-0.2,0c-0.3,0.2-0.6,0.4-0.9,0.6C22.2,21.3,22.5,21.7,22.8,21.9z"/>
	<path d="M25,17.4c0.8,0,1.5-0.7,1.6-1.5c0-0.8-0.8-1.6-1.6-1.6c-0.8,0-1.5,0.8-1.5,1.6C23.5,16.6,24.2,17.4,25,17.4z"/>
</g>
</svg>
