<?xml version="1.0" encoding="utf-8"?>
<!-- Generator: Adobe Illustrator 21.0.0, SVG Export Plug-In . SVG Version: 6.00 Build 0)  -->
<svg version="1.1" id="Capa_1" xmlns="http://www.w3.org/2000/svg" xmlns:xlink="http://www.w3.org/1999/xlink" x="0px" y="0px"
	 viewBox="0 0 82 50" style="enable-background:new 0 0 82 50;fill:#464646;" xml:space="preserve">
<g>
	<path d="M61.4,19.8L41.2,7.1c-0.1-0.1-0.3-0.1-0.5,0L20.6,19.8c-0.2,0.1-0.2,0.3-0.2,0.5c0.1,0.2,0.2,0.3,0.4,0.3h2.1v21.9
		c0,0.2,0.2,0.5,0.4,0.5h4.3c0.2,0,0.4-0.2,0.4-0.5v-19h25.7v19c0,0.2,0.2,0.5,0.5,0.5h4.4c0.2,0,0.4-0.2,0.4-0.5V20.7h2
		c0.2,0,0.4-0.1,0.4-0.3C61.7,20.1,61.6,19.9,61.4,19.8z M58.7,19.8c-0.2,0-0.5,0.2-0.5,0.5v21.9h-3.5v-19c0-0.2-0.2-0.5-0.5-0.5
		H27.7c-0.2,0-0.5,0.2-0.5,0.5v19h-3.4V20.2c0-0.2-0.2-0.5-0.5-0.5h-1L41,8l18.6,11.8H58.7z"/>
	<path d="M36.1,14.6c0,0.2,0.2,0.5,0.5,0.5h8.8c0.2,0,0.5-0.2,0.5-0.5c0-0.2-0.2-0.4-0.5-0.4h-8.8C36.3,14.2,36.1,14.4,36.1,14.6z"
		/>
	<path d="M33.4,17.4c0,0.2,0.2,0.4,0.4,0.4h14.4c0.2,0,0.5-0.2,0.5-0.4c0-0.2-0.2-0.5-0.5-0.5H33.8C33.6,17,33.4,17.2,33.4,17.4z"/>
	<path d="M47.4,26.7H39c-0.2,0-0.5,0.2-0.5,0.5v6.4l-3.8-1.8c-0.1-0.1-0.3-0.1-0.4,0l-4.1,1.8c0,0,0,0,0,0c0,0-0.1,0-0.1,0.1
		c0,0,0,0,0,0c0,0-0.1,0.1-0.1,0.1c0,0,0,0,0,0c0,0,0,0,0,0c0,0,0,0,0,0c0,0,0,0,0,0c0,0,0,0.1,0,0.1c0,0,0,0,0,0v5.7
		c0,0.2,0.1,0.3,0.3,0.4l4.1,1.7c0.1,0,0.1,0,0.2,0c0,0,0,0,0,0c0,0,0,0,0,0c0.1,0,0.2,0,0.3-0.1l3.7-1.8v1.4c0,0.2,0.2,0.5,0.5,0.5
		h8.4c0.2,0,0.5-0.2,0.5-0.5V27.1C47.9,26.9,47.7,26.7,47.4,26.7z M42.1,27.6H44v1.6l-0.4-0.4c-0.2-0.2-0.4-0.2-0.6,0l-0.9,0.6V27.6
		z M41.2,27.6v2.7c0,0.2,0.1,0.3,0.2,0.4c0.2,0.1,0.3,0.1,0.5,0l1.3-0.9l0.9,0.9c0.1,0.1,0.2,0.1,0.3,0.1c0.1,0,0.1,0,0.2,0
		c0.2-0.1,0.3-0.2,0.3-0.4v-2.7H47v6.2h-7.5v-6.2H41.2z M42.1,34.6H44v1.6l-0.4-0.4c-0.2-0.2-0.4-0.2-0.6,0l-0.9,0.6V34.6z
		 M34.6,32.6l3.1,1.5l-3.1,1.3l-3.1-1.5L34.6,32.6z M30.9,34.6l3.2,1.5v4.5l-3.2-1.4V34.6z M35,40.6v-4.4l3.2-1.4V39L35,40.6z
		 M39.4,40.9v-6.2h1.7v2.6c0,0.2,0.1,0.3,0.2,0.4c0.2,0.1,0.3,0.1,0.5,0l1.3-0.9l0.9,0.9c0.1,0.1,0.2,0.1,0.3,0.1c0.1,0,0.1,0,0.2,0
		c0.2-0.1,0.3-0.2,0.3-0.4v-2.7H47v6.2H39.4z"/>
</g>
</svg>
