<?xml version="1.0" encoding="utf-8"?>
<!-- Generator: Adobe Illustrator 21.0.0, SVG Export Plug-In . SVG Version: 6.00 Build 0)  -->
<svg version="1.1" id="Capa_1" xmlns="http://www.w3.org/2000/svg" xmlns:xlink="http://www.w3.org/1999/xlink" x="0px" y="0px"
	 viewBox="0 0 82 50" style="enable-background:new 0 0 82 50;fill:#464646;" xml:space="preserve">
<g>
	<path d="M49.6,27V11.8c0,0,0,0,0,0c0,0,0,0,0,0c0,0,0-0.1-0.1-0.1c0,0,0,0,0,0l0,0c0,0,0,0,0,0L43,5c0,0,0,0,0,0
		c0,0-0.1-0.1-0.1-0.1c0,0,0,0,0,0c0,0,0,0,0,0H25.4c-0.2,0-0.3,0.1-0.3,0.3V38c0,0.2,0.1,0.3,0.3,0.3H39c1,3.9,4.6,6.8,8.8,6.8
		c5,0,9.1-4.1,9.1-9.1C56.9,31.6,53.8,27.9,49.6,27z M43.1,5.9l5.5,5.6h-5.5V5.9z M25.7,37.7V5.5h16.9v6.3c0,0.2,0.1,0.3,0.3,0.3H49
		v14.8c-0.4-0.1-0.8-0.1-1.2-0.1c-5,0-9.1,4.1-9.1,9.1c0,0.6,0.1,1.2,0.2,1.7H25.7z M47.8,44.5c-4.7,0-8.5-3.8-8.5-8.5
		s3.8-8.5,8.5-8.5c4.7,0,8.5,3.8,8.5,8.5S52.5,44.5,47.8,44.5z"/>
	<path d="M51.8,33l-4.9,6l-3.4-2.7c-0.1-0.1-0.3-0.1-0.4,0c-0.1,0.1-0.1,0.3,0,0.4l3.6,2.9c0.1,0,0.1,0.1,0.2,0.1
		c0.1,0,0.2,0,0.2-0.1l5.1-6.2c0.1-0.1,0.1-0.3,0-0.4C52.1,32.9,51.9,32.9,51.8,33z"/>
	<path d="M29.3,15.8h16.2c0.2,0,0.3-0.1,0.3-0.3c0-0.2-0.1-0.3-0.3-0.3H29.3c-0.2,0-0.3,0.1-0.3,0.3C29,15.7,29.1,15.8,29.3,15.8z"
		/>
	<path d="M29.3,19.4h16.2c0.2,0,0.3-0.1,0.3-0.3s-0.1-0.3-0.3-0.3H29.3c-0.2,0-0.3,0.1-0.3,0.3S29.1,19.4,29.3,19.4z"/>
	<path d="M29.3,22.4h16.2c0.2,0,0.3-0.1,0.3-0.3s-0.1-0.3-0.3-0.3H29.3c-0.2,0-0.3,0.1-0.3,0.3S29.1,22.4,29.3,22.4z"/>
	<path d="M29.3,25.3h16.2c0.2,0,0.3-0.1,0.3-0.3c0-0.2-0.1-0.3-0.3-0.3H29.3c-0.2,0-0.3,0.1-0.3,0.3C29,25.2,29.1,25.3,29.3,25.3z"
		/>
	<path d="M38.2,28.3h-8.9c-0.2,0-0.3,0.1-0.3,0.3c0,0.2,0.1,0.3,0.3,0.3h8.9c0.2,0,0.3-0.1,0.3-0.3C38.5,28.4,38.4,28.3,38.2,28.3z"
		/>
	<path d="M36.3,31.3h-7c-0.2,0-0.3,0.1-0.3,0.3c0,0.2,0.1,0.3,0.3,0.3h7c0.2,0,0.3-0.1,0.3-0.3C36.6,31.4,36.5,31.3,36.3,31.3z"/>
</g>
</svg>
