<?xml version="1.0" encoding="utf-8"?>
<!-- Generator: Adobe Illustrator 21.0.0, SVG Export Plug-In . SVG Version: 6.00 Build 0)  -->
<svg version="1.1" baseProfile="tiny" id="Capa_1" xmlns="http://www.w3.org/2000/svg" xmlns:xlink="http://www.w3.org/1999/xlink"
	 x="0px" y="0px" viewBox="0 0 50 50" overflow="scroll" xml:space="preserve">
<path fill="#040006" d="M41.5,13.6c0-2.4-4.4-3.7-8.5-3.7s-8.5,1.3-8.5,3.7c0,0.1,0,0.2,0,0.3h0v2.4c-1.6-1.2-4.5-1.8-7.4-1.8
	c-4,0-8.2,1.2-8.5,3.4h0v15L8.6,33c0.1,0.1,2.4,3.4,7.9,3.6v0.7l0.1,0.1c0.1,0.3,1.5,2.6,8.5,2.6s8.3-2.3,8.5-2.6l0.1-0.1v-0.5
	c5.5-0.2,7.7-3.7,7.8-3.9l0.1-0.1V14.1C41.5,13.9,41.5,13.8,41.5,13.6z M40.3,24.8c-0.5,0.5-2.6,2-6.8,2.2c-0.4-2.1-4.2-3.2-7.9-3.3
	v-2.1c1.1,0.7,3.3,1.5,7.4,1.5c4.1,0,6.2-0.8,7.3-1.4V24.8z M25,24.7c4.2,0,7.4,1.4,7.4,2.6c0,1.2-3.2,2.6-7.4,2.6
	c-4.2,0-7.4-1.4-7.4-2.6C17.6,26.1,20.8,24.7,25,24.7z M24.4,23.6c-2.8,0.1-5.5,0.7-7,1.9c-4.8,0-7.2-1.4-7.8-1.8v-3.6
	c1.6,1.2,4.5,1.8,7.4,1.8s5.8-0.6,7.4-1.8V23.6z M9.6,25c1.1,0.6,3.3,1.5,7,1.6c0,0.1-0.1,0.3-0.1,0.4h0v3.3c-3.4-0.2-6-1.6-6.8-2.1
	V25z M17.6,29.2c1.6,1.2,4.5,1.8,7.4,1.8s5.8-0.6,7.4-1.8v3.5c-0.4,0.4-2,1.7-7.4,1.7c-5.4,0-7-1.2-7.4-1.5V29.2z M33.5,28.1
	c3.5-0.1,5.6-1.1,6.8-1.9v2.6c-2.1,1.9-5.4,2.2-6.8,2.3V28.1z M40.3,20.1c-0.3,0.4-1.9,1.7-7.3,1.7c-5.5,0-7.1-1.5-7.4-1.9v-4.5
	c1.6,1.2,4.5,1.8,7.4,1.8c2.8,0,5.7-0.6,7.3-1.7V20.1z M33,11.1c4.2,0,7.4,1.4,7.4,2.6s-3.2,2.6-7.4,2.6s-7.4-1.4-7.4-2.6
	S28.7,11.1,33,11.1z M17,15.6c4.2,0,7.4,1.4,7.4,2.6s-3.2,2.6-7.4,2.6s-7.4-1.4-7.4-2.6S12.8,15.6,17,15.6z M9.6,32.5v-2.9
	c1.3,0.7,3.7,1.8,6.8,1.9v4C12.1,35.3,10.1,33.1,9.6,32.5z M25,38.9c-5.5,0-7.1-1.5-7.4-1.9v-2.8c1.1,0.6,3.2,1.3,7.4,1.3
	c4.1,0,6.3-0.7,7.4-1.4v2.9C32.1,37.4,30.5,38.9,25,38.9z M33.5,35.7v-3.5c1.3,0,4.4-0.3,6.8-2v2.3C39.9,33.1,37.8,35.5,33.5,35.7z"
	/>
</svg>
