<?xml version="1.0" encoding="utf-8"?>
<!-- Generator: Adobe Illustrator 21.0.0, SVG Export Plug-In . SVG Version: 6.00 Build 0)  -->
<svg version="1.1" id="Capa_1" xmlns="http://www.w3.org/2000/svg" xmlns:xlink="http://www.w3.org/1999/xlink" x="0px" y="0px"
	 viewBox="0 0 82 50" style="enable-background:new 0 0 82 50;fill:#464646;" xml:space="preserve">
<g>
	<path d="M18.4,39.6c0.1,0,0.2,0,0.3-0.1c0.6-0.7,2.5-2.4,3.6-2.3c0.6,0.1,1.1,0.5,1.6,1c0.6,0.6,1.3,1.2,2.4,1.1
		c0.9-0.1,1.4-0.6,2-1c0.6-0.5,1.1-1,2.1-1.1c0.9,0,1.3,0.4,1.8,1c0.5,0.6,1,1.2,2.1,1.1c1-0.1,1.6-0.6,2.2-1.1c0.6-0.5,1-1,2-1
		c0.9,0,1.4,0.5,1.9,1c0.5,0.5,1.1,1.1,2.1,1.1c0.9,0,1.5-0.6,2-1.1c0.5-0.5,1-1,2-1c0.9,0,1.2,0.4,1.6,0.8c0.4,0.5,0.9,1.2,2.3,1.2
		c1.3,0,1.9-0.6,2.5-1.1c0.5-0.5,0.9-0.9,1.9-0.9c0.9,0,1.2,0.4,1.5,0.9c0.4,0.6,0.9,1.3,2.3,1.3c1.4,0,2-0.7,2.5-1.3
		c0.4-0.5,0.7-0.9,1.4-0.9c0.8,0,1.3,0.6,1.8,1.2c0.5,0.6,1,1.2,1.8,1.2c0.2,0,0.4-0.2,0.4-0.4c0-0.2-0.2-0.4-0.4-0.4
		c-0.5,0-0.8-0.4-1.2-0.9c-0.5-0.6-1.2-1.4-2.3-1.5L66,23.1c0-0.1,0-0.2-0.1-0.3c-0.1-0.1-0.2-0.1-0.3-0.1h-0.7v-4.1
		c0-0.2-0.2-0.4-0.4-0.4h-6v-3.3c0-0.2-0.2-0.4-0.4-0.4h-6.4h-6.4c0,0,0,0,0,0c0,0,0,0,0,0H39c-0.2,0-0.4,0.2-0.4,0.4v3.5h-6.2
		c-0.2,0-0.4,0.2-0.4,0.4v4.2v0.1v3.8h-2.2V16.1c1.5-1.8,1.2-3.9,1.2-4c0-0.2-0.2-0.3-0.4-0.3h-8.6V8.7h1.5c0.2,0,0.4-0.2,0.4-0.4
		c0-0.2-0.2-0.4-0.4-0.4h-1.5V5.9c0-0.2-0.2-0.4-0.4-0.4c-0.2,0-0.4,0.2-0.4,0.4V8h-1.6c-0.2,0-0.4,0.2-0.4,0.4
		c0,0.2,0.2,0.4,0.4,0.4h1.6v3.1H19c-0.2,0-0.3,0.1-0.4,0.3c-0.5,2.2,1,3.6,1.5,4.1v10.6h-1c-0.2,0-0.3,0.1-0.4,0.3
		c0,0.3-1.1,6.1,2.7,9.6C20,37,18.3,38.8,18.1,39c-0.1,0.2-0.1,0.4,0,0.5C18.2,39.6,18.3,39.6,18.4,39.6z M44.8,22.4h-5.6V19h5.6
		V22.4z M39.2,23.2h5.6v3.4h-5.6V23.2z M45.6,22.4V19h5.6v3.5H45.6z M45.6,23.2h5.6v3.5h-5.6V23.2z M51.9,23.4h4.2l-1.4,3.3h-2.7
		V23.4z M52.1,22.6v-3.8h5.6v3.8h-1.1H52.1z M64.2,22.5h-5.6v-3.6h5.6V22.5z M57.8,18.1h-5.6v-2.9h5.6V18.1z M45.7,15.2h5.6v2.9
		h-5.6V15.2z M39.4,15.2H45v2.9h-5.6V15.2z M38.4,19v3.4h-5.6V19H38.4z M32.7,23.3h5.6v3.4h-5.6V23.3z M29.3,15.6h-2v-3.1h3
		C30.3,13.1,30.2,14.4,29.3,15.6z M23,15.6C23,15.6,23,15.5,23,15.6l0-3.1h3.6v3.1H23z M19.3,12.5h2.9v3c0,0,0,0.1,0,0.1h-1.6
		C20.4,15.3,19.1,14.2,19.3,12.5z M21,16.3h8.1v10.4H21V16.3z M19.5,27.4h1.1h8.9h2.9h6.4h6.4h6.4h3.3c0.1,0,0.3-0.1,0.3-0.2
		l1.7-3.8h1.2h7l-1.9,6.5H19.4C19.4,28.8,19.4,27.9,19.5,27.4z M19.5,30.6h43.6l-1.7,5.8c0,0.1,0,0.1,0,0.2c-0.6,0.2-1,0.6-1.4,1
		c-0.5,0.6-0.9,1.1-2,1.1c-1,0-1.3-0.4-1.7-1c-0.4-0.6-0.9-1.2-2.2-1.2c-1.2,0-1.8,0.6-2.4,1.1c-0.5,0.5-0.9,0.9-1.9,0.9
		c-1,0-1.3-0.4-1.7-0.9c-0.4-0.5-0.9-1.2-2.2-1.1c-1.3,0-2,0.7-2.5,1.3c-0.5,0.5-0.8,0.8-1.5,0.9c-0.7,0-1-0.4-1.5-0.9
		c-0.5-0.6-1.2-1.3-2.4-1.3c-1.2,0-1.9,0.6-2.5,1.2c-0.5,0.5-0.9,0.9-1.7,0.9c-0.7,0-1-0.4-1.5-0.9c-0.5-0.6-1.1-1.3-2.4-1.2
		c-1.3,0.1-2,0.7-2.6,1.3c-0.5,0.4-0.9,0.8-1.5,0.9c-0.7,0.1-1.2-0.4-1.8-1c-0.6-0.5-1.1-1-1.9-1.1c0-0.1,0-0.2-0.1-0.3
		C20.3,34.7,19.7,32.4,19.5,30.6z"/>
	<path d="M65.6,43.8c-0.5,0-0.8-0.4-1.2-0.9c-0.5-0.7-1.2-1.5-2.4-1.5c-1,0-1.5,0.6-2,1.1c-0.5,0.6-0.9,1.1-2,1.1
		c-1,0-1.3-0.4-1.7-1c-0.4-0.6-0.9-1.2-2.2-1.2c-1.2,0-1.8,0.6-2.4,1.1c-0.5,0.5-0.9,0.9-1.9,0.9c-1,0-1.3-0.4-1.7-0.9
		c-0.4-0.5-0.9-1.2-2.2-1.1c-1.3,0-2,0.7-2.5,1.3c-0.5,0.5-0.8,0.8-1.5,0.9c-0.7,0-1-0.4-1.5-0.9c-0.5-0.6-1.2-1.3-2.4-1.3
		c-1.2,0-1.9,0.6-2.5,1.2c-0.5,0.5-0.9,0.9-1.7,0.9c-0.7,0-1-0.4-1.5-0.9c-0.5-0.6-1.1-1.3-2.4-1.2c-1.3,0.1-2,0.7-2.6,1.3
		c-0.5,0.4-0.9,0.8-1.5,0.9c-0.7,0.1-1.2-0.4-1.8-1c-0.6-0.5-1.1-1-2-1.1c-1.7-0.2-4,2.2-4.2,2.5c-0.1,0.2-0.1,0.4,0,0.5
		c0.1,0.1,0.2,0.1,0.2,0.1c0.1,0,0.2,0,0.3-0.1c0.6-0.7,2.5-2.4,3.6-2.3c0.6,0.1,1.1,0.5,1.6,1c0.6,0.6,1.3,1.2,2.4,1.1
		c0.9-0.1,1.4-0.6,2-1c0.6-0.5,1.1-1,2.1-1.1c0.9,0,1.3,0.4,1.8,1c0.5,0.6,1,1.2,2.1,1.1c1-0.1,1.6-0.6,2.2-1.1c0.6-0.5,1-1,2-1
		c0.9,0,1.4,0.5,1.9,1c0.5,0.5,1.1,1.1,2.1,1.1c0.9,0,1.5-0.6,2-1.1c0.5-0.5,1-1,2-1c0.9,0,1.2,0.4,1.6,0.8c0.4,0.5,0.9,1.2,2.3,1.2
		c1.3,0,1.9-0.6,2.5-1.1c0.5-0.5,0.9-0.9,1.9-0.9c0.9,0,1.2,0.4,1.5,0.9c0.4,0.6,0.9,1.3,2.3,1.3c1.4,0,2-0.7,2.5-1.3
		c0.4-0.5,0.7-0.9,1.4-0.9c0.8,0,1.3,0.6,1.8,1.2c0.5,0.6,1,1.2,1.8,1.2c0.2,0,0.4-0.2,0.4-0.4C66,43.9,65.8,43.8,65.6,43.8z"/>
</g>
</svg>
