<?xml version="1.0" encoding="utf-8"?>
<!-- Generator: Adobe Illustrator 21.0.0, SVG Export Plug-In . SVG Version: 6.00 Build 0)  -->
<svg version="1.1" baseProfile="tiny" id="Capa_1" xmlns="http://www.w3.org/2000/svg" xmlns:xlink="http://www.w3.org/1999/xlink"
	 x="0px" y="0px" viewBox="0 0 108 108" overflow="scroll" xml:space="preserve">
<g>
	<g>
		<path d="M70.8,63.6C70.8,63.6,70.8,63.6,70.8,63.6L70.8,63.6C70.8,63.6,70.8,63.6,70.8,63.6z"/>
	</g>
	<g>
		<path d="M63.7,67.1c0-1.1,0-2.3,0-3.5c-1.3,0-2.4,0-3.5,0c0-1.1,0-2.2,0-3.5c2.4,0,4.7,0,7,0c0-1.1,0-2.2,0-3.4c1.2,0,2.3,0,3.6,0
			c0,1.1,0,2.3,0,3.4c1.1,0,2.3,0,3.4,0c0-2.4,0-4.7,0-7.1c-5.9,0-11.7,0-17.5,0c0-2.4,0-4.7,0-7.1c1.2,0,2.2,0,3.3,0
			c0-3.6,0-7,0-10.6c-1.2,0-2.2,0-3.5,0c0-1.2,0-2.3,0-3.4c-1.3,0-2.4,0-3.6,0c0,1.2,0,2.2,0,3.4c-1.2,0-2.3,0-3.4,0
			c0,1.2,0,2.3,0,3.6c2.4,0,4.6,0,6.9,0c0,1.2,0,2.3,0,3.5c-2.3,0-4.6,0-6.9,0c0,1.2,0,2.3,0,3.5c1.2,0,2.2,0,3.3,0
			c0,1.2,0,2.3,0,3.5c-1.2,0-2.2,0-3.5,0c0,1.2,0,2.3,0,3.4c-3.6,0-7,0-10.5,0c0-1.2,0-2.2,0-3.4c-1.2,0-2.3,0-3.6,0
			c0,1.2,0,2.3,0,3.5c-1.2,0-2.3,0-3.5,0c0,1.2,0,2.3,0,3.5c2.3,0,4.6,0,7,0c0,1.2,0,2.3,0,3.4c2.5,0,4.7,0,7.2,0c0-1.2,0-2.3,0-3.3
			c2.4,0,4.6,0,7,0c0,5.9,0,11.7,0,17.5 M56.7,70.6c0-2.3,0-4.5,0-7c1.2,0,2.3,0,3.4,0c0,1.1,0,2.3,0,3.5"/>
	</g>
	<g>
		<path d="M61.9,31.9c0,5.2,0,10.3,0,15.4c5.2,0,10.3,0,15.5,0c0-5.2,0-10.3,0-15.4C72.2,31.9,67.1,31.9,61.9,31.9z M73.9,43.7
			c-2.8,0-5.6,0-8.6,0c0-2.8,0-5.5,0-8.3c2.9,0,5.7,0,8.6,0C73.9,38.2,73.9,40.9,73.9,43.7z"/>
	</g>
	<g>
		<path d="M47.7,31.9c-5.2,0-10.2,0-15.4,0c0,5.2,0,10.3,0,15.4c5.2,0,10.3,0,15.4,0C47.7,42.1,47.7,37,47.7,31.9z M44.1,43.8
			c-2.8,0-5.5,0-8.4,0c0-2.8,0-5.6,0-8.4c2.8,0,5.5,0,8.4,0C44.1,38.1,44.1,40.9,44.1,43.8z"/>
	</g>
	<g>
		<path d="M67.2,60.1C67.2,60.1,67.2,60.1,67.2,60.1C67.2,60.1,67.2,60.1,67.2,60.1C67.2,60.1,67.2,60.1,67.2,60.1
			C67.2,60.1,67.2,60.1,67.2,60.1z"/>
	</g>
	<g>
		<path d="M70.8,63.6C70.8,63.6,70.8,63.6,70.8,63.6C70.7,63.6,70.7,63.6,70.8,63.6C70.7,63.6,70.8,63.6,70.8,63.6z"/>
	</g>
	<g>
		<path d="M70.7,60.1C70.8,60.1,70.8,60.1,70.7,60.1C70.8,60.1,70.8,60.1,70.7,60.1C70.8,60.1,70.8,60.1,70.7,60.1
			C70.7,60.1,70.7,60.1,70.7,60.1z"/>
	</g>
	<g>
		<path d="M67.2,63.6c1.2,0,2.4-0.9,3.5-0.9c0-1.2,0-1.4,0-2.6c-1.2,0-2.3,0-3.5,0C67.2,61.2,67.2,62.4,67.2,63.6z"/>
	</g>
	<g>
		<path d="M72.3,37c-1.8,0-3.4,0-5.2,0c0,1.8,0,3.5,0,5.2c1.8,0,3.5,0,5.2,0C72.3,40.4,72.3,38.7,72.3,37z"/>
	</g>
	<g>
		<path d="M42.5,37c-1.8,0-3.4,0-5.1,0c0,1.8,0,3.4,0,5.1c1.8,0,3.5,0,5.1,0C42.5,40.4,42.5,38.7,42.5,37z"/>
	</g>
	<g>
		<path d="M49.2,70.9c0-5.2,0-3.2,0-8.3c-3.6,0-7.1,0-10.7,0L49.2,70.9z M45.7,67.6c-0.9-2-2.9-1.6-0.1-1.6
			C45.6,68.8,46.2,66.4,45.7,67.6z"/>
	</g>
</g>
<path fill="#CC6974" d="M97.1,43.9c0-0.1,0-0.2,0-0.3c0,0,0,0,0,0c0-0.1-0.1-0.2-0.1-0.3c0,0,0-0.1-0.1-0.1
	c-0.1-0.1-0.1-0.1-0.2-0.2c0,0,0-0.1-0.1-0.1c0,0,0,0,0,0l-8.1-6.7V23.3c0-0.8-0.7-1.5-1.5-1.5H68.4L54.3,11c-0.5-0.4-1.3-0.4-1.9,0
	L39,21.8h-18c-0.8,0-1.5,0.7-1.5,1.5V36l-8,6.1c0,0,0,0-0.1,0.1c0,0-0.1,0-0.1,0.1c-0.1,0.1-0.1,0.1-0.2,0.2c0,0,0,0,0,0.1
	c-0.1,0.1-0.1,0.2-0.1,0.3c0,0,0,0.1,0,0.1c0,0.1,0,0.2,0,0.3c0,0,0,0,0,0.1v52.5c0,0.8,0.7,1.5,1.5,1.5h83.3c0.8,0,1.5-0.7,1.5-1.5
	L97.1,43.9C97.1,43.9,97.1,43.9,97.1,43.9z M93.2,43.9l-4.7,3.4V40L93.2,43.9z M53.4,14.1l10.1,7.7H43.8L53.4,14.1z M22.4,24.8h63.1
	v24.6L54.7,71.9c-0.3,0.2-0.7,0.2-1,0l-31.3-23V24.8z M19.4,39.8v6.8l-4.6-3.4L19.4,39.8z M94.1,94.3H13.9v-48l38.1,28
	c1.3,1,3.2,1,4.5,0l37.6-27.4V94.3z"/>
</svg>
