<?xml version="1.0" standalone="no"?>
<!DOCTYPE svg PUBLIC "-//W3C//DTD SVG 1.1//EN" "http://www.w3.org/Graphics/SVG/1.1/DTD/svg11.dtd" >
<svg xmlns="http://www.w3.org/2000/svg">
<metadata>Generated by IcoMoon</metadata>
<defs>
<font id="icomoon" horiz-adv-x="1024">
<font-face units-per-em="1024" ascent="960" descent="-64" />
<missing-glyph horiz-adv-x="1024" />
<glyph unicode="&#x20;" horiz-adv-x="512" d="" />
<glyph unicode="&#xe900;" glyph-name="icon_aduanas" horiz-adv-x="1679" d="M1015.808 407.040v311.296c0 0 0 0 0 0s0 0 0 0 0 2.048-2.048 2.048c0 0 0 0 0 0v0c0 0 0 0 0 0l-133.12 137.216c0 0 0 0 0 0s-2.048 2.048-2.048 2.048c0 0 0 0 0 0s0 0 0 0h-358.4c-4.096 0-6.144-2.048-6.144-6.144v-671.744c0-4.096 2.048-6.144 6.144-6.144h278.528c20.48-79.872 94.208-139.264 180.224-139.264 102.4 0 186.368 83.968 186.368 186.368 0 90.112-63.488 165.888-149.504 184.32zM882.688 839.168l112.64-114.688h-112.64v114.688zM526.336 187.904v659.456h346.112v-129.024c0-4.096 2.048-6.144 6.144-6.144h124.928v-303.104c-8.192 2.048-16.384 2.048-24.576 2.048-102.4 0-186.368-83.968-186.368-186.368 0-12.288 2.048-24.576 4.096-34.816h-270.336zM978.944 48.64c-96.256 0-174.080 77.824-174.080 174.080s77.824 174.080 174.080 174.080c96.256 0 174.080-77.824 174.080-174.080s-77.824-174.080-174.080-174.080zM1060.864 284.16l-100.352-122.88-69.632 55.296c-2.048 2.048-6.144 2.048-8.192 0s-2.048-6.144 0-8.192l73.728-59.392c2.048 0 2.048-2.048 4.096-2.048s4.096 0 4.096 2.048l104.448 126.976c2.048 2.048 2.048 6.144 0 8.192s-6.144 2.048-8.192 0zM600.064 636.416h331.776c4.096 0 6.144 2.048 6.144 6.144s-2.048 6.144-6.144 6.144h-331.776c-4.096 0-6.144-2.048-6.144-6.144s2.048-6.144 6.144-6.144zM600.064 562.688h331.776c4.096 0 6.144 2.048 6.144 6.144s-2.048 6.144-6.144 6.144h-331.776c-4.096 0-6.144-2.048-6.144-6.144s2.048-6.144 6.144-6.144zM600.064 501.248h331.776c4.096 0 6.144 2.048 6.144 6.144s-2.048 6.144-6.144 6.144h-331.776c-4.096 0-6.144-2.048-6.144-6.144s2.048-6.144 6.144-6.144zM600.064 441.856h331.776c4.096 0 6.144 2.048 6.144 6.144s-2.048 6.144-6.144 6.144h-331.776c-4.096 0-6.144-2.048-6.144-6.144s2.048-6.144 6.144-6.144zM782.336 380.416h-182.272c-4.096 0-6.144-2.048-6.144-6.144s2.048-6.144 6.144-6.144h182.272c4.096 0 6.144 2.048 6.144 6.144s-2.048 6.144-6.144 6.144zM743.424 318.976h-143.36c-4.096 0-6.144-2.048-6.144-6.144s2.048-6.144 6.144-6.144h143.36c4.096 0 6.144 2.048 6.144 6.144s-2.048 6.144-6.144 6.144z" />
<glyph unicode="&#xe901;" glyph-name="icon_almacen" horiz-adv-x="1679" d="M1257.472 554.496l-413.696 260.096c-2.048 2.048-6.144 2.048-10.24 0l-411.648-260.096c-4.096-2.048-4.096-6.144-4.096-10.24 2.048-4.096 4.096-6.144 8.192-6.144h43.008v-448.512c0-4.096 4.096-10.24 8.192-10.24h88.064c4.096 0 8.192 4.096 8.192 10.24v389.12h526.336v-389.12c0-4.096 4.096-10.24 10.24-10.24h90.112c4.096 0 8.192 4.096 8.192 10.24v446.464h40.96c4.096 0 8.192 2.048 8.192 6.144 6.144 6.144 4.096 10.24 0 12.288zM1202.176 554.496c-4.096 0-10.24-4.096-10.24-10.24v-448.512h-71.68v389.12c0 4.096-4.096 10.24-10.24 10.24h-542.72c-4.096 0-10.24-4.096-10.24-10.24v-389.12h-69.632v450.56c0 4.096-4.096 10.24-10.24 10.24h-20.48l382.976 239.616 380.928-241.664h-18.432zM739.328 660.992c0-4.096 4.096-10.24 10.24-10.24h180.224c4.096 0 10.24 4.096 10.24 10.24 0 4.096-4.096 8.192-10.24 8.192h-180.224c-6.144 0-10.24-4.096-10.24-8.192zM684.032 603.648c0-4.096 4.096-8.192 8.192-8.192h294.912c4.096 0 10.24 4.096 10.24 8.192s-4.096 10.24-10.24 10.24h-294.912c-4.096-2.048-8.192-6.144-8.192-10.24zM970.752 413.184h-172.032c-4.096 0-10.24-4.096-10.24-10.24v-131.072l-77.824 36.864c-2.048 2.048-6.144 2.048-8.192 0l-83.968-36.864c0 0 0 0 0 0s-2.048 0-2.048-2.048c0 0 0 0 0 0s-2.048-2.048-2.048-2.048c0 0 0 0 0 0s0 0 0 0 0 0 0 0 0 0 0 0 0-2.048 0-2.048c0 0 0 0 0 0v-116.736c0-4.096 2.048-6.144 6.144-8.192l83.968-34.816c2.048 0 2.048 0 4.096 0 0 0 0 0 0 0s0 0 0 0c2.048 0 4.096 0 6.144 2.048l75.776 36.864v-28.672c0-4.096 4.096-10.24 10.24-10.24h172.032c4.096 0 10.24 4.096 10.24 10.24v288.768c-2.048 4.096-6.144 8.192-12.288 8.192zM862.208 394.752h38.912v-32.768l-8.192 8.192c-4.096 4.096-8.192 4.096-12.288 0l-18.432-12.288v36.864zM843.776 394.752v-55.296c0-4.096 2.048-6.144 4.096-8.192 4.096-2.048 6.144-2.048 10.24 0l26.624 18.432 18.432-18.432c2.048-2.048 4.096-2.048 6.144-2.048s2.048 0 4.096 0c4.096 2.048 6.144 4.096 6.144 8.192v55.296h43.008v-126.976h-153.6v126.976h34.816zM862.208 251.392h38.912v-32.768l-8.192 8.192c-4.096 4.096-8.192 4.096-12.288 0l-18.432-12.288v36.864zM708.608 292.352l63.488-30.72-63.488-26.624-63.488 30.72 63.488 26.624zM632.832 251.392l65.536-30.72v-92.16l-65.536 28.672v94.208zM716.8 128.512v90.112l65.536 28.672v-86.016l-65.536-32.768zM806.912 122.368v126.976h34.816v-53.248c0-4.096 2.048-6.144 4.096-8.192 4.096-2.048 6.144-2.048 10.24 0l26.624 18.432 18.432-18.432c2.048-2.048 4.096-2.048 6.144-2.048s2.048 0 4.096 0c4.096 2.048 6.144 4.096 6.144 8.192v55.296h45.056v-126.976h-155.648z" />
<glyph unicode="&#xe902;" glyph-name="icon_carga" horiz-adv-x="1679" d="M376.832 148.992c2.048 0 4.096 0 6.144 2.048 12.288 14.336 51.2 49.152 73.728 47.104 12.288-2.048 22.528-10.24 32.768-20.48 12.288-12.288 26.624-24.576 49.152-22.528 18.432 2.048 28.672 12.288 40.96 20.48 12.288 10.24 22.528 20.48 43.008 22.528 18.432 0 26.624-8.192 36.864-20.48s20.48-24.576 43.008-22.528c20.48 2.048 32.768 12.288 45.056 22.528s20.48 20.48 40.96 20.48c18.432 0 28.672-10.24 38.912-20.48s22.528-22.528 43.008-22.528c18.432 0 30.72 12.288 40.96 22.528s20.48 20.48 40.96 20.48c18.432 0 24.576-8.192 32.768-16.384 8.192-10.24 18.432-24.576 47.104-24.576 26.624 0 38.912 12.288 51.2 22.528 10.24 10.24 18.432 18.432 38.912 18.432 18.432 0 24.576-8.192 30.72-18.432 8.192-12.288 18.432-26.624 47.104-26.624s40.96 14.336 51.2 26.624c8.192 10.24 14.336 18.432 28.672 18.432 16.384 0 26.624-12.288 36.864-24.576s20.48-24.576 36.864-24.576c4.096 0 8.192 4.096 8.192 8.192s-4.096 8.192-8.192 8.192c-10.24 0-16.384 8.192-24.576 18.432-10.24 12.288-24.576 28.672-47.104 30.72l69.632 272.384c0 2.048 0 4.096-2.048 6.144s-4.096 2.048-6.144 2.048h-14.336v83.968c0 4.096-4.096 8.192-8.192 8.192h-122.88v67.584c0 4.096-4.096 8.192-8.192 8.192h-262.144c0 0 0 0 0 0s0 0 0 0h-129.024c-4.096 0-8.192-4.096-8.192-8.192v-71.68h-126.976c-4.096 0-8.192-4.096-8.192-8.192v-165.888h-45.056v221.184c30.72 36.864 24.576 79.872 24.576 81.92 0 4.096-4.096 6.144-8.192 6.144h-176.128v63.488h30.72c4.096 0 8.192 4.096 8.192 8.192s-4.096 8.192-8.192 8.192h-30.72v40.96c0 4.096-4.096 8.192-8.192 8.192s-8.192-4.096-8.192-8.192v-43.008h-32.768c-4.096 0-8.192-4.096-8.192-8.192s4.096-8.192 8.192-8.192h32.768v-63.488h-45.056c-4.096 0-6.144-2.048-8.192-6.144-10.24-45.056 20.48-73.728 30.72-83.968v-217.088h-20.48c-4.096 0-6.144-2.048-8.192-6.144 0-6.144-22.528-124.928 55.296-196.608-28.672-4.096-63.488-40.96-67.584-45.056-2.048-4.096-2.048-8.192 0-10.24s4.096-2.048 6.144-2.048zM917.504 501.248h-114.688v69.632h114.688v-69.632zM802.816 484.864h114.688v-69.632h-114.688v69.632zM933.888 501.248v69.632h114.688v-71.68h-114.688zM933.888 484.864h114.688v-71.68h-114.688v71.68zM1062.912 480.768h86.016l-28.672-67.584h-55.296v67.584zM1067.008 497.152v77.824h114.688v-77.824h-114.688zM1314.816 499.2h-114.688v73.728h114.688v-73.728zM1183.744 589.312h-114.688v59.392h114.688v-59.392zM935.936 648.704h114.688v-59.392h-114.688v59.392zM806.912 648.704h114.688v-59.392h-114.688v59.392zM786.432 570.88v-69.632h-114.688v69.632h114.688zM669.696 482.816h114.688v-69.632h-114.688v69.632zM600.064 640.512h-40.96v63.488h61.44c0-12.288-2.048-38.912-20.48-63.488zM471.040 640.512c0 0 0 2.048 0 0v63.488h73.728v-63.488h-73.728zM395.264 704h59.392v-61.44c0 0 0-2.048 0-2.048h-32.768c-4.096 6.144-30.72 28.672-26.624 63.488zM430.080 626.176h165.888v-212.992h-165.888v212.992zM399.36 398.848h724.992c2.048 0 6.144 2.048 6.144 4.096l34.816 77.824h167.936l-38.912-133.12h-897.024c0 22.528 0 40.96 2.048 51.2zM399.36 333.312h892.928l-34.816-118.784c0-2.048 0-2.048 0-4.096-12.288-4.096-20.48-12.288-28.672-20.48-10.24-12.288-18.432-22.528-40.96-22.528-20.48 0-26.624 8.192-34.816 20.48s-18.432 24.576-45.056 24.576c-24.576 0-36.864-12.288-49.152-22.528-10.24-10.24-18.432-18.432-38.912-18.432s-26.624 8.192-34.816 18.432c-8.192 10.24-18.432 24.576-45.056 22.528-26.624 0-40.96-14.336-51.2-26.624-10.24-10.24-16.384-16.384-30.72-18.432-14.336 0-20.48 8.192-30.72 18.432-10.24 12.288-24.576 26.624-49.152 26.624s-38.912-12.288-51.2-24.576c-10.24-10.24-18.432-18.432-34.816-18.432-14.336 0-20.48 8.192-30.72 18.432-10.24 12.288-22.528 26.624-49.152 24.576s-40.96-14.336-53.248-26.624c-10.24-8.192-18.432-16.384-30.72-18.432-14.336-2.048-24.576 8.192-36.864 20.48-12.288 10.24-22.528 20.48-38.912 22.528 0 2.048 0 4.096-2.048 6.144-34.816 32.768-47.104 79.872-51.2 116.736zM1343.488 62.976c-10.24 0-16.384 8.192-24.576 18.432-10.24 14.336-24.576 30.72-49.152 30.72-20.48 0-30.72-12.288-40.96-22.528-10.24-12.288-18.432-22.528-40.96-22.528-20.48 0-26.624 8.192-34.816 20.48s-18.432 24.576-45.056 24.576c-24.576 0-36.864-12.288-49.152-22.528-10.24-10.24-18.432-18.432-38.912-18.432s-26.624 8.192-34.816 18.432c-8.192 10.24-18.432 24.576-45.056 22.528-26.624 0-40.96-14.336-51.2-26.624-10.24-10.24-16.384-16.384-30.72-18.432-14.336 0-20.48 8.192-30.72 18.432-10.24 12.288-24.576 26.624-49.152 26.624s-38.912-12.288-51.2-24.576c-10.24-10.24-18.432-18.432-34.816-18.432-14.336 0-20.48 8.192-30.72 18.432-10.24 12.288-22.528 26.624-49.152 24.576s-40.96-14.336-53.248-26.624c-10.24-8.192-18.432-16.384-30.72-18.432-14.336-2.048-24.576 8.192-36.864 20.48-12.288 10.24-22.528 20.48-40.96 22.528-34.816 4.096-81.92-45.056-86.016-51.2-2.048-4.096-2.048-8.192 0-10.24s4.096-2.048 4.096-2.048 4.096 0 6.144 2.048c12.288 14.336 51.2 49.152 73.728 47.104 12.288-2.048 22.528-10.24 32.768-20.48 12.288-12.288 26.624-24.576 49.152-22.528 18.432 2.048 28.672 12.288 40.96 20.48 12.288 10.24 22.528 20.48 43.008 22.528 18.432 0 26.624-8.192 36.864-20.48s20.48-24.576 43.008-22.528c20.48 2.048 32.768 12.288 45.056 22.528s20.48 20.48 40.96 20.48c18.432 0 28.672-10.24 38.912-20.48s22.528-22.528 43.008-22.528c18.432 0 30.72 12.288 40.96 22.528s20.48 20.48 40.96 20.48c18.432 0 24.576-8.192 32.768-16.384 8.192-10.24 18.432-24.576 47.104-24.576 26.624 0 38.912 12.288 51.2 22.528 10.24 10.24 18.432 18.432 38.912 18.432 18.432 0 24.576-8.192 30.72-18.432 8.192-12.288 18.432-26.624 47.104-26.624s40.96 14.336 51.2 26.624c8.192 10.24 14.336 18.432 28.672 18.432 16.384 0 26.624-12.288 36.864-24.576s20.48-24.576 36.864-24.576c4.096 0 8.192 4.096 8.192 8.192-2.048 6.144-6.144 8.192-10.24 8.192z" />
<glyph unicode="&#xe903;" glyph-name="icon_carga_domestica" horiz-adv-x="1679" d="M1130.496 697.856h-954.368v-327.68h956.416v327.68zM264.192 386.56h-73.728v296.96h73.728v-296.96zM342.016 386.56h-63.488v296.96h63.488v-296.96zM419.84 386.56h-61.44v296.96h61.44v-296.96zM497.664 386.56h-63.488v296.96h63.488v-296.96zM573.44 386.56h-61.44v296.96h61.44v-296.96zM651.264 386.56h-63.488v296.96h63.488v-296.96zM729.088 386.56h-61.44v296.96h61.44v-296.96zM806.912 386.56h-63.488v296.96h63.488v-296.96zM884.736 386.56h-63.488v296.96h63.488v-296.96zM962.56 386.56h-61.44v296.96h61.44v-296.96zM1040.384 386.56h-63.488v296.96h63.488v-296.96zM1116.16 386.56h-59.392v296.96h59.392v-296.96zM319.488 288.256c-28.672 0-51.2-22.528-51.2-51.2s22.528-51.2 51.2-51.2c28.672 0 51.2 22.528 51.2 51.2s-22.528 51.2-51.2 51.2zM319.488 202.24c-18.432 0-34.816 16.384-34.816 34.816s16.384 34.816 34.816 34.816 34.816-16.384 34.816-34.816-14.336-34.816-34.816-34.816zM487.424 288.256c-28.672 0-51.2-22.528-51.2-51.2s22.528-51.2 51.2-51.2c28.672 0 51.2 22.528 51.2 51.2s-22.528 51.2-51.2 51.2zM487.424 202.24c-18.432 0-34.816 16.384-34.816 34.816s16.384 34.816 34.816 34.816c18.432 0 34.816-16.384 34.816-34.816s-14.336-34.816-34.816-34.816zM880.64 288.256c-28.672 0-51.2-22.528-51.2-51.2s22.528-51.2 51.2-51.2c28.672 0 51.2 22.528 51.2 51.2s-24.576 51.2-51.2 51.2zM880.64 202.24c-18.432 0-34.816 16.384-34.816 34.816s16.384 34.816 34.816 34.816c18.432 0 34.816-16.384 34.816-34.816s-16.384-34.816-34.816-34.816zM1048.576 288.256c-28.672 0-51.2-22.528-51.2-51.2s22.528-51.2 51.2-51.2c28.672 0 51.2 22.528 51.2 51.2s-24.576 51.2-51.2 51.2zM1048.576 202.24c-18.432 0-34.816 16.384-34.816 34.816s16.384 34.816 34.816 34.816c18.432 0 34.816-16.384 34.816-34.816s-16.384-34.816-34.816-34.816zM1421.312 284.16c-28.672 0-51.2-22.528-51.2-51.2s22.528-51.2 51.2-51.2 51.2 22.528 51.2 51.2-24.576 51.2-51.2 51.2zM1421.312 198.144c-18.432 0-34.816 16.384-34.816 34.816s16.384 34.816 34.816 34.816 34.816-16.384 34.816-34.816-16.384-34.816-34.816-34.816zM579.584 255.488h208.896v-16.384h-208.896v16.384zM1130.496 253.44h204.8v-16.384h-204.8v16.384zM1548.288 333.312v0c0 2.048 6.144 30.72-14.336 55.296-18.432 22.528-51.2 34.816-98.304 34.816-2.048 30.72-18.432 149.504-153.6 208.896h-118.784v-288.768h-989.184v-104.448h53.248v16.384h-36.864v73.728h1343.488v-73.728h-36.864v-16.384h51.2v94.208zM1175.552 343.552v196.608h65.536v14.336h-65.536v63.488h98.304c145.408-63.488 143.36-194.56 143.36-200.704v-8.192h8.192c47.104 0 77.824-10.24 94.208-30.72 10.24-12.288 12.288-28.672 12.288-34.816h-356.352zM1294.336 527.872v-88.064h86.016c0-2.048-20.48 79.872-86.016 88.064z" />
<glyph unicode="&#xe904;" glyph-name="icon_cotizador" horiz-adv-x="1679" d="M1150.976 269.824c-38.912 81.92-131.072 139.264-182.272 157.696 0 0-4.096-4.096-8.192 8.192-2.048 12.288-16.384 32.768-26.624 28.672-10.24-2.048-69.632-65.536-69.632-65.536l176.128-36.864c0 0 12.288-4.096 4.096-6.144l-63.488-10.24-196.608 40.96c0 0-4.096 2.048 4.096 4.096s43.008 8.192 43.008 8.192l-63.488 61.44c0 0-6.144 6.144-12.288 6.144-8.192 0-22.528-34.816-22.528-34.816s-36.864 6.144-77.824-8.192c-40.96-12.288-112.64-53.248-112.64-53.248s-22.528-12.288-20.48 4.096c2.048 16.384 30.72 145.408 30.72 145.408l49.152 36.864c0 0 14.336 8.192 6.144 24.576s-30.72-10.24-45.056-8.192l4.096 22.528c0 0 18.432 65.536-47.104 71.68 0 0-55.296 6.144-71.68-47.104l-55.296-282.624c0 0-16.384-77.824 34.816-104.448 51.2-24.576 176.128 14.336 176.128 14.336l12.288-10.24v-122.88c0 0 0-18.432 24.576-24.576s180.224-45.056 180.224-45.056 16.384-4.096 28.672-4.096 65.536 14.336 65.536 14.336 14.336-36.864 51.2-32.768 184.32 45.056 184.32 45.056 36.864 12.288 36.864 45.056c2.048 32.768 2.048 75.776-36.864 157.696zM825.344 65.024l-176.128 43.008c0 0-12.288 4.096-12.288 18.432 0 16.384 0 202.752 0 202.752s-4.096 14.336 12.288 16.384l178.176-40.96c0 0 16.384-4.096 18.432-24.576 0-20.48 0-198.656 0-198.656s4.096-18.432-20.48-16.384zM829.44 323.072l-167.936 36.864c-6.144 2.048-4.096 4.096-4.096 4.096s28.672 8.192 55.296 12.288 36.864 0 36.864 0l176.128-32.768c14.336-2.048 8.192-6.144 8.192-6.144s-32.768-6.144-61.44-14.336c-24.576-8.192-43.008 0-43.008 0zM1064.96 171.52l-96.256-24.576c0 0-53.248-10.24-55.296-71.68l-45.056-10.24c0 0-12.288-2.048-10.24 10.24v204.8c0 0-4.096 18.432 16.384 26.624s67.584 16.384 67.584 16.384v-61.44l45.056 12.288v61.44l49.152 10.24c0 0 24.576 6.144 28.672-6.144 0-18.432 0-167.936 0-167.936zM698.368 589.312c12.288-67.584 75.776-120.832 151.552-120.832s139.264 51.2 151.552 120.832c14.336 2.048 26.624 18.432 26.624 36.864 0 20.48-12.288 36.864-28.672 36.864 12.288 88.064-16.384 116.736-16.384 116.736s-22.528 45.056-116.736 51.2c-2.048 10.24-8.192 16.384-16.384 16.384-6.144 0-12.288-6.144-16.384-16.384-2.048 0-2.048 0-4.096 0-124.928-6.144-126.976-96.256-126.976-96.256v-73.728c-16.384 0-28.672-16.384-28.672-36.864-2.048-16.384 10.24-32.768 24.576-34.816zM845.824 493.056c-71.68 0-73.728 71.68-73.728 71.68h145.408c0 2.048 0-71.68-71.68-71.68zM731.136 675.328c0 0 40.96 38.912 110.592 38.912s116.736-30.72 116.736-30.72 26.624-8.192 14.336-32.768-45.056-10.24-45.056-10.24-28.672 20.48-75.776 20.48c-47.104 2.048-63.488-20.48-83.968-22.528-18.432-4.096-34.816 8.192-40.96 18.432-4.096 10.24 4.096 18.432 4.096 18.432z" />
<glyph unicode="&#xe905;" glyph-name="icon_distribucion" horiz-adv-x="1679" d="M1245.184 568.832h-118.784v65.536c0 0 0 0 0 0s0 0 0 0c0 4.096-2.048 8.192-6.144 10.24l-104.448 104.448c-2.048 2.048-4.096 4.096-8.192 4.096h-272.384c-2.048 0-6.144-2.048-8.192-4.096l-104.448-106.496c0 0 0 0 0 0s0 0 0 0 0 0 0 0 0 0 0-2.048c0 0 0 0 0 0s0 0 0-2.048c0 0 0-2.048 0-2.048v-425.984c0-6.144 4.096-10.24 10.24-10.24h83.968c4.096-32.768 30.72-59.392 65.536-59.392s61.44 26.624 65.536 59.392h309.248c4.096-32.768 30.72-59.392 65.536-59.392s61.44 26.624 65.536 59.392h69.632c6.144 0 10.24 4.096 10.24 10.24v225.28c2.048 126.976-120.832 133.12-122.88 133.12zM1085.44 648.704h-208.896v83.968h126.976l81.92-83.968zM739.328 732.672h114.688v-83.968h-198.656l83.968 83.968zM782.336 163.328c-24.576 0-43.008 20.48-43.008 43.008 0 24.576 20.48 43.008 43.008 43.008s43.008-20.48 43.008-43.008c0-22.528-18.432-43.008-43.008-43.008zM1091.584 222.72h-245.76c-6.144 28.672-32.768 51.2-63.488 51.2s-57.344-22.528-65.536-51.2h-77.824v403.456h462.848v-403.456h-10.24zM1224.704 163.328c-24.576 0-43.008 20.48-43.008 43.008 0 24.576 20.48 43.008 43.008 43.008s43.008-20.48 43.008-43.008c0-22.528-20.48-43.008-43.008-43.008zM1347.584 222.72h-59.392c-6.144 28.672-32.768 51.2-63.488 51.2s-57.344-22.528-65.536-51.2h-32.768v323.584h118.784c6.144 0 102.4-8.192 102.4-112.64v-210.944zM559.104 540.16h-159.744c-6.144 0-10.24-4.096-10.24-10.24s4.096-10.24 10.24-10.24h159.744c6.144 0 10.24 4.096 10.24 10.24s-4.096 10.24-10.24 10.24zM559.104 333.312h-159.744c-6.144 0-10.24-4.096-10.24-10.24s4.096-10.24 10.24-10.24h159.744c6.144 0 10.24 4.096 10.24 10.24s-4.096 10.24-10.24 10.24zM559.104 435.712h-237.568c-6.144 0-10.24-4.096-10.24-10.24s4.096-10.24 10.24-10.24h239.616c6.144 0 10.24 4.096 10.24 10.24s-6.144 10.24-12.288 10.24z" />
<glyph unicode="&#xe906;" glyph-name="icon_express" horiz-adv-x="1679" d="M1169.408 396.8c-8.192 90.112-108.544 159.744-133.12 176.128v20.48c10.24-22.528 28.672-32.768 40.96-34.816 0 0 2.048 0 2.048 0h75.776c6.144 0 10.24 4.096 10.24 10.24v129.024c0 6.144-4.096 10.24-10.24 10.24h-69.632c0 0-2.048 0-2.048 0-12.288-2.048-34.816-12.288-47.104-34.816v18.432c0 45.056-32.768 59.392-51.2 59.392h-122.88c0 0 0 0-2.048 0-14.336-2.048-43.008-16.384-43.008-53.248s24.576-53.248 36.864-57.344c0 0 2.048 0 2.048 0h73.728v-280.576h-147.456c-8.192 20.48-20.48 40.96-36.864 61.44v135.168c0 57.344-45.056 77.824-69.632 79.872 0 0 0 0-2.048 0h-155.648c0 0-2.048 0-2.048 0-14.336-2.048-40.96-16.384-40.96-49.152 0-34.816 24.576-49.152 38.912-53.248 0 0 2.048 0 2.048 0h83.968v-55.296c-202.752-8.192-210.944-206.848-210.944-208.896s0-6.144 2.048-8.192c2.048-2.048 4.096-4.096 8.192-4.096h73.728c4.096-65.536 57.344-114.688 126.976-114.688 67.584 0 122.88 49.152 126.976 114.688h235.52c6.144 0 10.24 4.096 10.24 10.24s-4.096 10.24-10.24 10.24h-157.696c-2.048 12.288-4.096 32.768-14.336 59.392h151.552c6.144 0 10.24 4.096 10.24 10.24v303.104c0 6.144-4.096 10.24-10.24 10.24h-83.968c-4.096 2.048-20.48 10.24-20.48 36.864s20.48 32.768 24.576 32.768h120.832c2.048 0 30.72-2.048 30.72-38.912v-124.928c0-4.096 2.048-6.144 4.096-8.192 2.048 0 120.832-73.728 129.024-161.792-63.488-8.192-110.592-61.44-110.592-124.928 0-69.632 57.344-126.976 126.976-126.976s126.976 57.344 126.976 126.976c0 65.536-53.248 122.88-120.832 124.928zM1085.44 689.664h59.392v-108.544h-63.488c-4.096 2.048-32.768 10.24-32.768 53.248 0 45.056 30.72 53.248 36.864 55.296zM520.192 552.448c-4.096 2.048-22.528 8.192-22.528 32.768 0 22.528 18.432 28.672 22.528 28.672h155.648c6.144 0 51.2-8.192 51.2-59.392v-114.688c-24.576 20.48-59.392 34.816-102.4 36.864v65.536c0 6.144-4.096 10.24-10.24 10.24h-94.208zM600.064 165.376c-57.344 0-102.4 38.912-104.448 94.208h210.944c-6.144-53.248-49.152-94.208-106.496-94.208zM411.648 280.064c2.048 16.384 8.192 49.152 26.624 83.968 34.816 61.44 94.208 94.208 176.128 94.208 139.264 0 165.888-139.264 169.984-176.128h-372.736zM1163.264 165.376c-57.344 0-106.496 47.104-106.496 106.496s47.104 106.496 106.496 106.496c57.344 0 106.496-47.104 106.496-106.496s-47.104-106.496-106.496-106.496zM1181.696 269.824c0-12.442-10.086-22.528-22.528-22.528s-22.528 10.086-22.528 22.528c0 12.442 10.086 22.528 22.528 22.528s22.528-10.086 22.528-22.528z" />
<glyph unicode="&#xe907;" horiz-adv-x="1679" d="M1333.248 329.216l-47.104 55.296-47.104-55.296h-98.304l96.256 114.688-96.256 114.688h102.4l47.104-57.344 47.104 57.344h98.304l-96.256-114.688 98.304-114.688z" />
<glyph unicode="&#xe908;" horiz-adv-x="1679" d="M1445.888 325.12h-112.64l-45.056 53.248-47.104-53.248h-110.592l100.352 118.784-100.352 118.784h112.64l47.104-53.248 45.056 53.248h110.592l-100.352-118.784 100.352-118.784zM1335.296 333.312h92.16l-94.208 110.592 94.208 110.592h-88.064l-49.152-59.392-49.152 57.344h-92.16l94.208-110.592-94.208-110.592h88.064l49.152 59.392 49.152-57.344z" />
<glyph unicode="&#xe909;" horiz-adv-x="1679" d="M948.224 329.216v360.448h192.512v-79.872h-110.592v-51.2h110.592v-77.824h-110.592v-71.68h110.592v-79.872z" />
<glyph unicode="&#xe90a;" horiz-adv-x="1679" d="M1144.832 325.12h-198.656v368.64h198.656v-88.064h-110.592v-43.008h110.592v-86.016h-110.592v-63.488h110.592v-88.064zM952.32 333.312h182.272v73.728h-110.592v79.872h110.592v69.632h-110.592v59.392h110.592v71.68h-182.272v-354.304z" />
<glyph unicode="&#xe90b;" horiz-adv-x="1679" d="M862.208 691.712v-147.456c-16.384 18.432-38.912 28.672-69.632 28.672-51.2 0-96.256-32.768-112.64-83.968-18.432 55.296-63.488 86.016-124.928 86.016-49.152 0-90.112-20.48-112.64-57.344v43.008h-108.544v49.152h116.736v83.968h-212.992v-364.544h98.304v151.552h92.16c-2.048-10.24-4.096-22.528-4.096-34.816 0-73.728 57.344-129.024 133.12-129.024 61.44 0 102.4 26.624 124.928 81.92 16.384-49.152 61.44-83.968 112.64-83.968 26.624 0 51.2 12.288 67.584 34.816v-22.528h88.064v364.544h-88.064zM860.16 441.856c0-43.008-24.576-57.344-47.104-57.344-30.72 0-49.152 28.672-49.152 57.344 0 30.72 16.384 61.44 49.152 61.44 34.816 2.048 47.104-30.72 47.104-61.44zM514.048 480.768c6.144 20.48 22.528 34.816 43.008 34.816 22.528 0 38.912-12.288 45.056-34.816h-88.064zM598.016 398.848v0c-12.288-16.384-20.48-20.48-40.96-20.48-24.576 0-45.056 20.48-47.104 47.104h165.888c2.048-8.192 4.096-18.432 6.144-26.624h-83.968z" />
<glyph unicode="&#xe90c;" horiz-adv-x="1679" d="M962.56 208.384h57.344v12.288h-57.344v45.056h59.392v12.288h-73.728v-131.072h75.776v12.288h-61.44z" />
<glyph unicode="&#xe90d;" horiz-adv-x="1679" d="M1116.16 239.104h-16.384l-26.624-34.816-26.624 34.816h-16.384l34.816-45.056-36.864-47.104h18.432l26.624 36.864 28.672-36.864h16.384l-36.864 47.104z" />
<glyph unicode="&#xe90e;" horiz-adv-x="1679" d="M1167.36 241.152c-12.288 0-20.48-4.096-28.672-12.288v10.24h-14.336v-2.048c0-8.192 0-18.432 0-26.624v-98.304h14.336v45.056c6.144-8.192 16.384-12.288 26.624-12.288 30.72 0 40.96 26.624 40.96 49.152 2.048 20.48-10.24 47.104-38.912 47.104zM1193.984 192c0-8.192-2.048-36.864-28.672-36.864-22.528 0-26.624 20.48-26.624 36.864s4.096 36.864 26.624 36.864c6.144 0 28.672-2.048 28.672-36.864z" />
<glyph unicode="&#xe90f;" horiz-adv-x="1679" d="M1271.808 241.152v0c-4.096 0-4.096 0-6.144 0-10.24 0-20.48-4.096-24.576-12.288v10.24h-14.336v-2.048c0-8.192 0-18.432 0-26.624v-65.536h14.336v53.248c0 8.192 2.048 28.672 22.528 28.672 2.048 0 4.096 0 6.144 0h2.048v14.336z" />
<glyph unicode="&#xe910;" horiz-adv-x="1679" d="M1312.768 241.152c-26.624 0-43.008-20.48-43.008-51.2 0-28.672 14.336-47.104 40.96-47.104 20.48 0 32.768 10.24 38.912 28.672v2.048h-12.288c-2.048-8.192-8.192-18.432-24.576-18.432-20.48 0-28.672 18.432-28.672 34.816h65.536v2.048c0 30.72-12.288 49.152-36.864 49.152zM1312.768 230.912c16.384 0 24.576-16.384 24.576-30.72h-51.2c0 20.48 10.24 30.72 26.624 30.72z" />
<glyph unicode="&#xe911;" horiz-adv-x="1679" d="M1396.736 200.192c-12.288 4.096-22.528 6.144-22.528 16.384 0 12.288 14.336 14.336 18.432 14.336 10.24 0 18.432-6.144 18.432-16.384v-2.048h14.336v2.048c0 18.432-12.288 26.624-32.768 26.624-10.24 0-32.768-2.048-32.768-26.624 0-18.432 16.384-22.528 30.72-26.624v0c12.288-4.096 20.48-6.144 20.48-16.384s-8.192-16.384-20.48-16.384c-12.288 0-20.48 6.144-20.48 18.432v2.048h-14.336v-2.048c0-18.432 12.288-30.72 34.816-30.72s34.816 10.24 34.816 28.672c2.048 20.48-14.336 24.576-28.672 28.672z" />
<glyph unicode="&#xe912;" horiz-adv-x="1679" d="M1472.512 200.192c-12.288 4.096-22.528 6.144-22.528 16.384 0 12.288 14.336 14.336 18.432 14.336 10.24 0 18.432-6.144 18.432-16.384v-2.048h14.336v2.048c0 18.432-12.288 26.624-32.768 26.624-10.24 0-32.768-2.048-32.768-26.624 0-18.432 16.384-22.528 30.72-26.624v0c12.288-4.096 20.48-6.144 20.48-16.384s-8.192-16.384-20.48-16.384c-12.288 0-20.48 6.144-20.48 18.432v2.048h-12.288v-2.048c0-18.432 12.288-30.72 34.816-30.72s34.816 10.24 34.816 28.672c0 20.48-16.384 24.576-30.72 28.672z" />
<glyph unicode="&#xe913;" glyph-name="icon_locker" horiz-adv-x="1679" d="M1206.272 822.784h-733.184c-4.096 0-8.192-4.096-8.192-8.192v-688.128c0-4.096 4.096-8.192 8.192-8.192h14.336v-36.864c0-4.096 4.096-8.192 8.192-8.192h12.288c2.048 0 4.096 0 6.144 2.048l40.96 43.008h96.256l36.864-43.008c2.048-2.048 4.096-2.048 6.144-2.048h16.384c4.096 0 8.192 4.096 8.192 8.192v36.864h8.192v-36.864c0-4.096 4.096-8.192 8.192-8.192h12.288c2.048 0 4.096 0 6.144 2.048l40.96 43.008h96.256l36.864-43.008c2.048-2.048 4.096-2.048 6.144-2.048h16.384c4.096 0 8.192 4.096 8.192 8.192v36.864h16.384v-36.864c0-4.096 4.096-8.192 8.192-8.192h12.288c2.048 0 4.096 0 6.144 2.048l40.96 43.008h96.256l36.864-43.008c2.048-2.048 4.096-2.048 6.144-2.048h16.384c4.096 0 8.192 4.096 8.192 8.192v36.864h6.144c4.096 0 8.192 4.096 8.192 8.192v688.128c-6.144 6.144-8.192 8.192-14.336 8.192zM501.76 89.6v28.672h26.624l-26.624-28.672zM548.864 134.656h-67.584v671.744h229.376v-671.744h-161.792zM700.416 89.6h-4.096l-24.576 28.672h28.672v-28.672zM741.376 89.6v28.672h26.624l-26.624-28.672zM786.432 134.656h-59.392v671.744h223.232v-671.744h-163.84zM937.984 89.6h-4.096l-24.576 28.672h28.672v-28.672zM987.136 89.6v28.672h26.624l-26.624-28.672zM1032.192 134.656h-63.488v671.744h229.376v-671.744h-165.888zM1183.744 89.6h-4.096l-24.576 28.672h28.672v-28.672zM538.624 720.384h122.88c4.096 0 8.192 4.096 8.192 8.192s-4.096 8.192-8.192 8.192h-122.88c-4.096 0-8.192-4.096-8.192-8.192s4.096-8.192 8.192-8.192zM538.624 679.424h122.88c4.096 0 8.192 4.096 8.192 8.192s-4.096 8.192-8.192 8.192h-122.88c-4.096 0-8.192-4.096-8.192-8.192s4.096-8.192 8.192-8.192zM530.432 259.584c0-4.096 4.096-8.192 8.192-8.192h122.88c4.096 0 8.192 4.096 8.192 8.192s-4.096 8.192-8.192 8.192h-122.88c-4.096 0-8.192-4.096-8.192-8.192zM669.696 216.576c0 4.096-4.096 8.192-8.192 8.192h-122.88c-4.096 0-8.192-4.096-8.192-8.192s4.096-8.192 8.192-8.192h122.88c6.144 0 8.192 4.096 8.192 8.192zM534.528 400.896v90.112c0 4.096-4.096 8.192-8.192 8.192s-8.192-4.096-8.192-8.192v-90.112c0-4.096 4.096-8.192 8.192-8.192s8.192 4.096 8.192 8.192zM606.208 523.776c0 16.384-12.288 28.672-28.672 28.672s-28.672-12.288-28.672-28.672c0-16.384 12.288-28.672 28.672-28.672 16.384 2.048 28.672 14.336 28.672 28.672zM567.296 523.776c0 6.144 4.096 12.288 12.288 12.288 6.144 0 12.288-4.096 12.288-12.288 0-6.144-4.096-12.288-12.288-12.288-8.192 2.048-12.288 6.144-12.288 12.288zM776.192 720.384h122.88c4.096 0 8.192 4.096 8.192 8.192s-4.096 8.192-8.192 8.192h-122.88c-4.096 0-8.192-4.096-8.192-8.192s4.096-8.192 8.192-8.192zM776.192 679.424h122.88c4.096 0 8.192 4.096 8.192 8.192s-4.096 8.192-8.192 8.192h-122.88c-4.096 0-8.192-4.096-8.192-8.192s4.096-8.192 8.192-8.192zM768 259.584c0-4.096 4.096-8.192 8.192-8.192h122.88c4.096 0 8.192 4.096 8.192 8.192s-4.096 8.192-8.192 8.192h-122.88c-4.096 0-8.192-4.096-8.192-8.192zM907.264 216.576c0 4.096-4.096 8.192-8.192 8.192h-122.88c-4.096 0-8.192-4.096-8.192-8.192s4.096-8.192 8.192-8.192h122.88c6.144 0 8.192 4.096 8.192 8.192zM772.096 400.896v90.112c0 4.096-4.096 8.192-8.192 8.192s-8.192-4.096-8.192-8.192v-90.112c0-4.096 4.096-8.192 8.192-8.192s8.192 4.096 8.192 8.192zM843.776 523.776c0 16.384-12.288 28.672-28.672 28.672s-28.672-12.288-28.672-28.672c0-16.384 12.288-28.672 28.672-28.672 16.384 2.048 28.672 14.336 28.672 28.672zM804.864 523.776c0 6.144 4.096 12.288 12.288 12.288 6.144 0 12.288-4.096 12.288-12.288 0-6.144-4.096-12.288-12.288-12.288-8.192 2.048-12.288 6.144-12.288 12.288zM1021.952 720.384h122.88c4.096 0 8.192 4.096 8.192 8.192s-4.096 8.192-8.192 8.192h-122.88c-4.096 0-8.192-4.096-8.192-8.192s4.096-8.192 8.192-8.192zM1021.952 679.424h122.88c4.096 0 8.192 4.096 8.192 8.192s-4.096 8.192-8.192 8.192h-122.88c-4.096 0-8.192-4.096-8.192-8.192s4.096-8.192 8.192-8.192zM1013.76 259.584c0-4.096 4.096-8.192 8.192-8.192h122.88c4.096 0 8.192 4.096 8.192 8.192s-4.096 8.192-8.192 8.192h-122.88c-4.096 0-8.192-4.096-8.192-8.192zM1153.024 216.576c0 4.096-4.096 8.192-8.192 8.192h-122.88c-4.096 0-8.192-4.096-8.192-8.192s4.096-8.192 8.192-8.192h122.88c6.144 0 8.192 4.096 8.192 8.192zM1017.856 400.896v90.112c0 4.096-4.096 8.192-8.192 8.192s-8.192-4.096-8.192-8.192v-90.112c0-4.096 4.096-8.192 8.192-8.192s8.192 4.096 8.192 8.192zM1089.536 523.776c0 16.384-12.288 28.672-28.672 28.672s-28.672-12.288-28.672-28.672c0-16.384 12.288-28.672 28.672-28.672 16.384 2.048 28.672 14.336 28.672 28.672zM1050.624 523.776c0 6.144 4.096 12.288 12.288 12.288 6.144 0 12.288-4.096 12.288-12.288 0-6.144-4.096-12.288-12.288-12.288-8.192 2.048-12.288 6.144-12.288 12.288z" />
</font>
</defs>
</svg>
