<?xml version="1.0" encoding="utf-8"?>
<!-- Generator: Adobe Illustrator 21.0.0, SVG Export Plug-In . SVG Version: 6.00 Build 0)  -->
<svg version="1.1" id="Capa_1" xmlns="http://www.w3.org/2000/svg" xmlns:xlink="http://www.w3.org/1999/xlink" x="0px" y="0px"
	 viewBox="0 0 82 50" style="enable-background:new 0 0 82 50;" xml:space="preserve">
<g>
	<path d="M58.9,6.7H46.9H35.1H23.1c-0.2,0-0.4,0.2-0.4,0.4v33.6c0,0.2,0.2,0.4,0.4,0.4h0.7v1.8c0,0.2,0.2,0.4,0.4,0.4h0.6
		c0.1,0,0.2,0,0.3-0.1l2-2.1h4.7l1.8,2.1c0.1,0.1,0.2,0.1,0.3,0.1h0.8c0.2,0,0.4-0.2,0.4-0.4v-1.8h0.2h0.2v1.8
		c0,0.2,0.2,0.4,0.4,0.4h0.6c0.1,0,0.2,0,0.3-0.1l2-2.1h4.7l1.8,2.1c0.1,0.1,0.2,0.1,0.3,0.1h0.8c0.2,0,0.4-0.2,0.4-0.4v-1.8h0.3
		h0.5v1.8c0,0.2,0.2,0.4,0.4,0.4h0.6c0.1,0,0.2,0,0.3-0.1l2-2.1h4.7l1.8,2.1c0.1,0.1,0.2,0.1,0.3,0.1h0.8c0.2,0,0.4-0.2,0.4-0.4
		v-1.8h0.3c0.2,0,0.4-0.2,0.4-0.4V7.1C59.3,6.8,59.2,6.7,58.9,6.7z M24.5,42.5v-1.4h1.3L24.5,42.5z M26.8,40.3h-3.3V7.5h11.2v32.8
		h-2.8H26.8z M34.2,42.5h-0.2l-1.2-1.4h1.4V42.5z M36.2,42.5v-1.4h1.3L36.2,42.5z M38.4,40.3h-2.9V7.5h10.9v32.8h-3H38.4z
		 M45.8,42.5h-0.2l-1.2-1.4h1.4V42.5z M48.2,42.5v-1.4h1.3L48.2,42.5z M50.4,40.3h-3.1V7.5h11.2v32.8h-3H50.4z M57.8,42.5h-0.2
		l-1.2-1.4h1.4V42.5z"/>
	<path d="M26.3,11.7h6c0.2,0,0.4-0.2,0.4-0.4s-0.2-0.4-0.4-0.4h-6c-0.2,0-0.4,0.2-0.4,0.4S26.1,11.7,26.3,11.7z"/>
	<path d="M26.3,13.7h6c0.2,0,0.4-0.2,0.4-0.4s-0.2-0.4-0.4-0.4h-6c-0.2,0-0.4,0.2-0.4,0.4S26.1,13.7,26.3,13.7z"/>
	<path d="M25.9,34.2c0,0.2,0.2,0.4,0.4,0.4h6c0.2,0,0.4-0.2,0.4-0.4c0-0.2-0.2-0.4-0.4-0.4h-6C26.1,33.8,25.9,34,25.9,34.2z"/>
	<path d="M32.7,36.3c0-0.2-0.2-0.4-0.4-0.4h-6c-0.2,0-0.4,0.2-0.4,0.4c0,0.2,0.2,0.4,0.4,0.4h6C32.6,36.7,32.7,36.5,32.7,36.3z"/>
	<path d="M26.1,27.3v-4.4c0-0.2-0.2-0.4-0.4-0.4c-0.2,0-0.4,0.2-0.4,0.4v4.4c0,0.2,0.2,0.4,0.4,0.4C25.9,27.7,26.1,27.5,26.1,27.3z"
		/>
	<path d="M29.6,21.3c0-0.8-0.6-1.4-1.4-1.4c-0.8,0-1.4,0.6-1.4,1.4c0,0.8,0.6,1.4,1.4,1.4C29,22.6,29.6,22,29.6,21.3z M27.7,21.3
		c0-0.3,0.2-0.6,0.6-0.6c0.3,0,0.6,0.2,0.6,0.6c0,0.3-0.2,0.6-0.6,0.6C27.9,21.8,27.7,21.6,27.7,21.3z"/>
	<path d="M37.9,11.7h6c0.2,0,0.4-0.2,0.4-0.4s-0.2-0.4-0.4-0.4h-6c-0.2,0-0.4,0.2-0.4,0.4S37.7,11.7,37.9,11.7z"/>
	<path d="M37.9,13.7h6c0.2,0,0.4-0.2,0.4-0.4s-0.2-0.4-0.4-0.4h-6c-0.2,0-0.4,0.2-0.4,0.4S37.7,13.7,37.9,13.7z"/>
	<path d="M37.5,34.2c0,0.2,0.2,0.4,0.4,0.4h6c0.2,0,0.4-0.2,0.4-0.4c0-0.2-0.2-0.4-0.4-0.4h-6C37.7,33.8,37.5,34,37.5,34.2z"/>
	<path d="M44.3,36.3c0-0.2-0.2-0.4-0.4-0.4h-6c-0.2,0-0.4,0.2-0.4,0.4c0,0.2,0.2,0.4,0.4,0.4h6C44.2,36.7,44.3,36.5,44.3,36.3z"/>
	<path d="M37.7,27.3v-4.4c0-0.2-0.2-0.4-0.4-0.4s-0.4,0.2-0.4,0.4v4.4c0,0.2,0.2,0.4,0.4,0.4S37.7,27.5,37.7,27.3z"/>
	<path d="M41.2,21.3c0-0.8-0.6-1.4-1.4-1.4c-0.8,0-1.4,0.6-1.4,1.4c0,0.8,0.6,1.4,1.4,1.4C40.6,22.6,41.2,22,41.2,21.3z M39.3,21.3
		c0-0.3,0.2-0.6,0.6-0.6c0.3,0,0.6,0.2,0.6,0.6c0,0.3-0.2,0.6-0.6,0.6C39.5,21.8,39.3,21.6,39.3,21.3z"/>
	<path d="M49.9,11.7h6c0.2,0,0.4-0.2,0.4-0.4s-0.2-0.4-0.4-0.4h-6c-0.2,0-0.4,0.2-0.4,0.4S49.7,11.7,49.9,11.7z"/>
	<path d="M49.9,13.7h6c0.2,0,0.4-0.2,0.4-0.4s-0.2-0.4-0.4-0.4h-6c-0.2,0-0.4,0.2-0.4,0.4S49.7,13.7,49.9,13.7z"/>
	<path d="M49.5,34.2c0,0.2,0.2,0.4,0.4,0.4h6c0.2,0,0.4-0.2,0.4-0.4c0-0.2-0.2-0.4-0.4-0.4h-6C49.7,33.8,49.5,34,49.5,34.2z"/>
	<path d="M56.3,36.3c0-0.2-0.2-0.4-0.4-0.4h-6c-0.2,0-0.4,0.2-0.4,0.4c0,0.2,0.2,0.4,0.4,0.4h6C56.2,36.7,56.3,36.5,56.3,36.3z"/>
	<path d="M49.7,27.3v-4.4c0-0.2-0.2-0.4-0.4-0.4s-0.4,0.2-0.4,0.4v4.4c0,0.2,0.2,0.4,0.4,0.4S49.7,27.5,49.7,27.3z"/>
	<path d="M53.2,21.3c0-0.8-0.6-1.4-1.4-1.4c-0.8,0-1.4,0.6-1.4,1.4c0,0.8,0.6,1.4,1.4,1.4C52.6,22.6,53.2,22,53.2,21.3z M51.3,21.3
		c0-0.3,0.2-0.6,0.6-0.6c0.3,0,0.6,0.2,0.6,0.6c0,0.3-0.2,0.6-0.6,0.6C51.5,21.8,51.3,21.6,51.3,21.3z"/>
</g>
</svg>
