<?xml version="1.0" encoding="utf-8"?>
<!-- Generator: Adobe Illustrator 21.0.0, SVG Export Plug-In . SVG Version: 6.00 Build 0)  -->
<svg version="1.1" id="Capa_1" xmlns="http://www.w3.org/2000/svg" xmlns:xlink="http://www.w3.org/1999/xlink" x="0px" y="0px"
	 viewBox="0 0 82 50" style="enable-background:new 0 0 82 50;" xml:space="preserve">
<g>
	<path d="M56.2,33.7c-1.9-4-6.4-6.8-8.9-7.7c0,0-0.2,0.2-0.4-0.4c-0.1-0.6-0.8-1.6-1.3-1.4c-0.5,0.1-3.4,3.2-3.4,3.2l8.6,1.8
		c0,0,0.6,0.2,0.2,0.3l-3.1,0.5l-9.6-2c0,0-0.2-0.1,0.2-0.2c0.4-0.1,2.1-0.4,2.1-0.4l-3.1-3c0,0-0.3-0.3-0.6-0.3
		c-0.4,0-1.1,1.7-1.1,1.7s-1.8-0.3-3.8,0.4c-2,0.6-5.5,2.6-5.5,2.6s-1.1,0.6-1-0.2c0.1-0.8,1.5-7.1,1.5-7.1l2.4-1.8
		c0,0,0.7-0.4,0.3-1.2s-1.5,0.5-2.2,0.4l0.2-1.1c0,0,0.9-3.2-2.3-3.5c0,0-2.7-0.3-3.5,2.3l-2.7,13.8c0,0-0.8,3.8,1.7,5.1
		c2.5,1.2,8.6-0.7,8.6-0.7l0.6,0.5v6c0,0,0,0.9,1.2,1.2c1.2,0.3,8.8,2.2,8.8,2.2s0.8,0.2,1.4,0.2s3.2-0.7,3.2-0.7s0.7,1.8,2.5,1.6
		s9-2.2,9-2.2S58,43,58,41.4C58.1,39.8,58.1,37.7,56.2,33.7z M40.3,43.7l-8.6-2.1c0,0-0.6-0.2-0.6-0.9c0-0.8,0-9.9,0-9.9
		s-0.2-0.7,0.6-0.8l8.7,2c0,0,0.8,0.2,0.9,1.2c0,1,0,9.7,0,9.7S41.5,43.8,40.3,43.7z M40.5,31.1l-8.2-1.8c-0.3-0.1-0.2-0.2-0.2-0.2
		s1.4-0.4,2.7-0.6s1.8,0,1.8,0l8.6,1.6c0.7,0.1,0.4,0.3,0.4,0.3s-1.6,0.3-3,0.7C41.4,31.5,40.5,31.1,40.5,31.1z M52,38.5l-4.7,1.2
		c0,0-2.6,0.5-2.7,3.5l-2.2,0.5c0,0-0.6,0.1-0.5-0.5l0-10c0,0-0.2-0.9,0.8-1.3c1-0.4,3.3-0.8,3.3-0.8v3l2.2-0.6v-3l2.4-0.5
		c0,0,1.2-0.3,1.4,0.3C52,31.2,52,38.5,52,38.5z"/>
	<path d="M34.1,18.1c0.6,3.3,3.7,5.9,7.4,5.9c3.7,0,6.8-2.5,7.4-5.9c0.7-0.1,1.3-0.9,1.3-1.8c0-1-0.6-1.8-1.4-1.8
		c0.6-4.3-0.8-5.7-0.8-5.7s-1.1-2.2-5.7-2.5c-0.1-0.5-0.4-0.8-0.8-0.8c-0.3,0-0.6,0.3-0.8,0.8c-0.1,0-0.1,0-0.2,0
		c-6.1,0.3-6.2,4.7-6.2,4.7v3.6c-0.8,0-1.4,0.8-1.4,1.8C32.8,17.2,33.4,18,34.1,18.1z M41.3,22.8c-3.5,0-3.6-3.5-3.6-3.5h7.1
		C44.8,19.2,44.8,22.8,41.3,22.8z M35.7,13.9c0,0,2-1.9,5.4-1.9c3.4,0,5.7,1.5,5.7,1.5s1.3,0.4,0.7,1.6s-2.2,0.5-2.2,0.5
		s-1.4-1-3.7-1c-2.3-0.1-3.1,1-4.1,1.1c-0.9,0.2-1.7-0.4-2-0.9C35.3,14.3,35.7,13.9,35.7,13.9z"/>
</g>
</svg>
