<?xml version="1.0" encoding="utf-8"?>
<!-- Generator: Adobe Illustrator 21.0.0, SVG Export Plug-In . SVG Version: 6.00 Build 0)  -->
<svg version="1.1" id="Capa_1" xmlns="http://www.w3.org/2000/svg" xmlns:xlink="http://www.w3.org/1999/xlink" x="0px" y="0px"
	 viewBox="0 0 82 50" style="enable-background:new 0 0 82 50;" xml:space="preserve">
<g>
	<path d="M57.1,27.5c-0.4-4.4-5.3-7.8-6.5-8.6v-1c0.5,1.1,1.4,1.6,2,1.7c0,0,0.1,0,0.1,0h3.7c0.3,0,0.5-0.2,0.5-0.5v-6.3
		c0-0.3-0.2-0.5-0.5-0.5h-3.4c0,0-0.1,0-0.1,0c-0.6,0.1-1.7,0.6-2.3,1.7v-0.9c0-2.2-1.6-2.9-2.5-2.9h-6c0,0,0,0-0.1,0
		c-0.7,0.1-2.1,0.8-2.1,2.6c0,1.8,1.2,2.6,1.8,2.8c0,0,0.1,0,0.1,0h3.6v13.7h-7.2c-0.4-1-1-2-1.8-3v-6.6c0-2.8-2.2-3.8-3.4-3.9
		c0,0,0,0-0.1,0h-7.6c0,0-0.1,0-0.1,0c-0.7,0.1-2,0.8-2,2.4c0,1.7,1.2,2.4,1.9,2.6c0,0,0.1,0,0.1,0h4.1v2.7
		C19.4,23.9,19,33.6,19,33.7c0,0.1,0,0.3,0.1,0.4c0.1,0.1,0.2,0.2,0.4,0.2h3.6c0.2,3.2,2.8,5.6,6.2,5.6c3.3,0,6-2.4,6.2-5.6H47
		c0.3,0,0.5-0.2,0.5-0.5s-0.2-0.5-0.5-0.5h-7.7c-0.1-0.6-0.2-1.6-0.7-2.9H46c0.3,0,0.5-0.2,0.5-0.5V15.1c0-0.3-0.2-0.5-0.5-0.5h-4.1
		c-0.2-0.1-1-0.5-1-1.8c0-1.3,1-1.6,1.2-1.6l5.9,0c0.1,0,1.5,0.1,1.5,1.9v6.1c0,0.2,0.1,0.3,0.2,0.4c0.1,0,5.9,3.6,6.3,7.9
		c-3.1,0.4-5.4,3-5.4,6.1c0,3.4,2.8,6.2,6.2,6.2s6.2-2.8,6.2-6.2C63,30.4,60.4,27.6,57.1,27.5z M53,13.2h2.9v5.3h-3.1
		c-0.2-0.1-1.6-0.5-1.6-2.6C51.2,13.7,52.7,13.3,53,13.2z M25.4,19.9c-0.2-0.1-1.1-0.4-1.1-1.6c0-1.1,0.9-1.4,1.1-1.4H33
		c0.3,0,2.5,0.4,2.5,2.9v5.6c-1.2-1-2.9-1.7-5-1.8v-3.2c0-0.3-0.2-0.5-0.5-0.5H25.4z M29.3,38.8c-2.8,0-5-1.9-5.1-4.6h10.3
		C34.2,36.8,32.1,38.8,29.3,38.8z M20.1,33.2c0.1-0.8,0.4-2.4,1.3-4.1c1.7-3,4.6-4.6,8.6-4.6c6.8,0,8.1,6.8,8.3,8.6H20.1z
		 M56.8,38.8c-2.8,0-5.2-2.3-5.2-5.2s2.3-5.2,5.2-5.2c2.8,0,5.2,2.3,5.2,5.2S59.7,38.8,56.8,38.8z"/>
	<circle cx="56.6" cy="33.7" r="1.1"/>
</g>
</svg>
