<?xml version="1.0" encoding="utf-8"?>
<!-- Generator: Adobe Illustrator 21.0.0, SVG Export Plug-In . SVG Version: 6.00 Build 0)  -->
<svg version="1.1" id="Capa_1" xmlns="http://www.w3.org/2000/svg" xmlns:xlink="http://www.w3.org/1999/xlink" x="0px" y="0px"
	 viewBox="0 0 82 50" style="enable-background:new 0 0 82 50;" xml:space="preserve">
<g>
	<path d="M60.8,19.1H55v-3.2c0,0,0,0,0,0c0,0,0,0,0,0c0-0.2-0.1-0.4-0.3-0.5l-5.1-5.1c-0.1-0.1-0.2-0.2-0.4-0.2H35.9
		c-0.1,0-0.3,0.1-0.4,0.2l-5.1,5.2c0,0,0,0,0,0c0,0,0,0,0,0c0,0,0,0,0,0c0,0,0,0,0,0.1c0,0,0,0,0,0c0,0,0,0,0,0.1c0,0,0,0.1,0,0.1
		v20.8c0,0.3,0.2,0.5,0.5,0.5H35c0.2,1.6,1.5,2.9,3.2,2.9c1.7,0,3-1.3,3.2-2.9h11.9h1.1h2.1c0.2,1.6,1.5,2.9,3.2,2.9s3-1.3,3.2-2.9
		h3.4c0.3,0,0.5-0.2,0.5-0.5V25.6C66.9,19.4,60.9,19.1,60.8,19.1z M53,15.2H42.8v-4.1h6.2L53,15.2z M36.1,11.1h5.6v4.1H32L36.1,11.1
		z M38.2,38.9c-1.2,0-2.1-1-2.1-2.1c0-1.2,1-2.1,2.1-2.1s2.1,1,2.1,2.1C40.3,37.9,39.4,38.9,38.2,38.9z M53.3,36h-12
		c-0.3-1.4-1.6-2.5-3.1-2.5S35.4,34.6,35,36h-3.8V16.3h22.6V36H53.3z M59.8,38.9c-1.2,0-2.1-1-2.1-2.1c0-1.2,1-2.1,2.1-2.1
		s2.1,1,2.1,2.1C61.9,37.9,60.9,38.9,59.8,38.9z M65.8,36h-2.9c-0.3-1.4-1.6-2.5-3.1-2.5S57,34.6,56.6,36H55V20.2h5.8
		c0.3,0,5,0.4,5,5.5V36z"/>
	<path d="M27.3,20.5h-7.8c-0.3,0-0.5,0.2-0.5,0.5s0.2,0.5,0.5,0.5h7.8c0.3,0,0.5-0.2,0.5-0.5S27.6,20.5,27.3,20.5z"/>
	<path d="M27.3,30.6h-7.8c-0.3,0-0.5,0.2-0.5,0.5s0.2,0.5,0.5,0.5h7.8c0.3,0,0.5-0.2,0.5-0.5S27.6,30.6,27.3,30.6z"/>
	<path d="M27.3,25.6H15.7c-0.3,0-0.5,0.2-0.5,0.5s0.2,0.5,0.5,0.5h11.7c0.3,0,0.5-0.2,0.5-0.5S27.6,25.6,27.3,25.6z"/>
</g>
</svg>
