<?xml version="1.0" encoding="utf-8"?>
<!-- Generator: Adobe Illustrator 21.0.0, SVG Export Plug-In . SVG Version: 6.00 Build 0)  -->
<svg version="1.1" id="Capa_1" xmlns="http://www.w3.org/2000/svg" xmlns:xlink="http://www.w3.org/1999/xlink" x="0px" y="0px"
	 viewBox="0 0 82 50" style="enable-background:new 0 0 82 50;" xml:space="preserve">
<g>
	<path d="M55.2,12.8H8.6v16h46.7V12.8z M12.9,28H9.3V13.5h3.6V28z M16.7,28h-3.1V13.5h3.1V28z M20.5,28h-3V13.5h3V28z M24.3,28h-3.1
		V13.5h3.1V28z M28,28H25V13.5H28V28z M31.8,28h-3.1V13.5h3.1V28z M35.6,28h-3V13.5h3V28z M39.4,28h-3.1V13.5h3.1V28z M43.2,28h-3.1
		V13.5h3.1V28z M47,28h-3V13.5h3V28z M50.8,28h-3.1V13.5h3.1V28z M54.5,28h-2.9V13.5h2.9V28z"/>
	<path d="M15.6,32.8c-1.4,0-2.5,1.1-2.5,2.5s1.1,2.5,2.5,2.5c1.4,0,2.5-1.1,2.5-2.5S17,32.8,15.6,32.8z M15.6,37
		c-0.9,0-1.7-0.8-1.7-1.7s0.8-1.7,1.7-1.7s1.7,0.8,1.7,1.7S16.6,37,15.6,37z"/>
	<path d="M23.8,32.8c-1.4,0-2.5,1.1-2.5,2.5s1.1,2.5,2.5,2.5c1.4,0,2.5-1.1,2.5-2.5S25.2,32.8,23.8,32.8z M23.8,37
		c-0.9,0-1.7-0.8-1.7-1.7s0.8-1.7,1.7-1.7c0.9,0,1.7,0.8,1.7,1.7S24.8,37,23.8,37z"/>
	<path d="M43,32.8c-1.4,0-2.5,1.1-2.5,2.5s1.1,2.5,2.5,2.5c1.4,0,2.5-1.1,2.5-2.5S44.3,32.8,43,32.8z M43,37c-0.9,0-1.7-0.8-1.7-1.7
		s0.8-1.7,1.7-1.7c0.9,0,1.7,0.8,1.7,1.7S43.9,37,43,37z"/>
	<path d="M51.2,32.8c-1.4,0-2.5,1.1-2.5,2.5s1.1,2.5,2.5,2.5c1.4,0,2.5-1.1,2.5-2.5S52.5,32.8,51.2,32.8z M51.2,37
		c-0.9,0-1.7-0.8-1.7-1.7s0.8-1.7,1.7-1.7c0.9,0,1.7,0.8,1.7,1.7S52.1,37,51.2,37z"/>
	<path d="M69.4,33c-1.4,0-2.5,1.1-2.5,2.5S68,38,69.4,38s2.5-1.1,2.5-2.5S70.7,33,69.4,33z M69.4,37.2c-0.9,0-1.7-0.8-1.7-1.7
		s0.8-1.7,1.7-1.7s1.7,0.8,1.7,1.7S70.3,37.2,69.4,37.2z"/>
	<rect x="28.3" y="34.4" width="10.2" height="0.8"/>
	<rect x="55.2" y="34.5" width="10" height="0.8"/>
	<path d="M75.6,30.6L75.6,30.6c0-0.1,0.3-1.5-0.7-2.7c-0.9-1.1-2.5-1.7-4.8-1.7c-0.1-1.5-0.9-7.3-7.5-10.2l-5.8,0v14.1H8.5v5.1h2.6
		v-0.8H9.3v-3.6h47.8v0h17.8v3.6h-1.8v0.8h2.5L75.6,30.6L75.6,30.6z M57.4,30.1v-9.6h3.2v-0.7h-3.2v-3.1h4.8c7.1,3.1,7,9.5,7,9.8
		l0,0.4h0.4c2.3,0,3.8,0.5,4.6,1.5c0.5,0.6,0.6,1.4,0.6,1.7H57.4z"/>
	<path d="M63.2,21.1v4.3h4.2C67.4,25.5,66.4,21.5,63.2,21.1z"/>
</g>
</svg>
