<?xml version="1.0" encoding="utf-8"?>
<!-- Generator: Adobe Illustrator 21.0.0, SVG Export Plug-In . SVG Version: 6.00 Build 0)  -->
<svg version="1.1" id="Capa_1" xmlns="http://www.w3.org/2000/svg" xmlns:xlink="http://www.w3.org/1999/xlink" x="0px" y="0px"
	 viewBox="0 0 82 50" style="enable-background:new 0 0 82 50;" xml:space="preserve">
<style type="text/css">
	.st0{fill:#FFFFFF;}
	.st1{fill:#110D13;}
</style>
<g>
	<g>
		<polygon class="st0" points="65.1,30.8 62.8,28.1 60.5,30.8 55.7,30.8 60.4,25.2 55.7,19.6 60.7,19.6 63,22.4 65.3,19.6 
			70.1,19.6 65.4,25.2 70.2,30.8 		"/>
		<path class="st1" d="M70.6,31h-5.5l-2.2-2.6L60.6,31h-5.4l4.9-5.8l-4.9-5.8h5.5l2.3,2.6l2.2-2.6h5.4l-4.9,5.8L70.6,31z M65.2,30.6
			h4.5l-4.6-5.4l4.6-5.4h-4.3L63,22.7l-2.4-2.8h-4.5l4.6,5.4l-4.6,5.4h4.3l2.4-2.9L65.2,30.6z"/>
	</g>
	<g>
		<polygon class="st0" points="46.3,30.8 46.3,13.2 55.7,13.2 55.7,17.1 50.3,17.1 50.3,19.6 55.7,19.6 55.7,23.4 50.3,23.4 
			50.3,26.9 55.7,26.9 55.7,30.8 		"/>
		<path class="st1" d="M55.9,31h-9.7V13h9.7v4.3h-5.4v2.1h5.4v4.2h-5.4v3.1h5.4V31z M46.5,30.6h8.9v-3.6h-5.4v-3.9h5.4v-3.4h-5.4
			v-2.9h5.4v-3.5h-8.9V30.6z"/>
	</g>
	<path class="st1" d="M42.1,13.1v7.2c-0.8-0.9-1.9-1.4-3.4-1.4c-2.5,0-4.7,1.6-5.5,4.1c-0.9-2.7-3.1-4.2-6.1-4.2
		c-2.4,0-4.4,1-5.5,2.8v-2.1h-5.3v-2.4h5.7v-4.1H11.6v17.8h4.8v-7.4h4.5c-0.1,0.5-0.2,1.1-0.2,1.7c0,3.6,2.8,6.3,6.5,6.3
		c3,0,5-1.3,6.1-4c0.8,2.4,3,4.1,5.5,4.1c1.3,0,2.5-0.6,3.3-1.7v1.1h4.3V13.1H42.1z M42,25.3c0,2.1-1.2,2.8-2.3,2.8
		c-1.5,0-2.4-1.4-2.4-2.8c0-1.5,0.8-3,2.4-3C41.4,22.2,42,23.8,42,25.3z M25.1,23.4c0.3-1,1.1-1.7,2.1-1.7c1.1,0,1.9,0.6,2.2,1.7
		H25.1z M29.2,27.4L29.2,27.4c-0.6,0.8-1,1-2,1c-1.2,0-2.2-1-2.3-2.3H33c0.1,0.4,0.2,0.9,0.3,1.3H29.2z"/>
	<g>
		<polygon class="st1" points="47,36.7 49.8,36.7 49.8,36.1 47,36.1 47,33.9 49.9,33.9 49.9,33.3 46.3,33.3 46.3,39.7 50,39.7 
			50,39.1 47,39.1 		"/>
		<polygon class="st1" points="54.5,35.2 53.7,35.2 52.4,36.9 51.1,35.2 50.3,35.2 52,37.4 50.2,39.7 51.1,39.7 52.4,37.9 
			53.8,39.7 54.6,39.7 52.8,37.4 		"/>
		<path class="st1" d="M57,35.1c-0.6,0-1,0.2-1.4,0.6l0-0.5h-0.7l0,0.1c0,0.4,0,0.9,0,1.3v4.8h0.7v-2.2c0.3,0.4,0.8,0.6,1.3,0.6
			c1.5,0,2-1.3,2-2.4C59,36.4,58.4,35.1,57,35.1z M58.3,37.5c0,0.4-0.1,1.8-1.4,1.8c-1.1,0-1.3-1-1.3-1.8c0-0.8,0.2-1.8,1.3-1.8
			C57.2,35.7,58.3,35.8,58.3,37.5z"/>
		<path class="st1" d="M62.1,35.1L62.1,35.1c-0.2,0-0.2,0-0.3,0c-0.5,0-1,0.2-1.2,0.6l0-0.5h-0.7l0,0.1c0,0.4,0,0.9,0,1.3v3.2h0.7
			v-2.6c0-0.4,0.1-1.4,1.1-1.4c0.1,0,0.2,0,0.3,0l0.1,0V35.1z"/>
		<path class="st1" d="M64.1,35.1c-1.3,0-2.1,1-2.1,2.5c0,1.4,0.7,2.3,2,2.3c1,0,1.6-0.5,1.9-1.4l0-0.1h-0.6l0,0
			c-0.1,0.4-0.4,0.9-1.2,0.9c-1,0-1.4-0.9-1.4-1.7h3.2v-0.1C65.9,36,65.3,35.1,64.1,35.1z M64.1,35.6c0.8,0,1.2,0.8,1.2,1.5h-2.5
			C62.8,36.1,63.3,35.6,64.1,35.6z"/>
		<path class="st1" d="M68.2,37.1c-0.6-0.2-1.1-0.3-1.1-0.8c0-0.6,0.7-0.7,0.9-0.7c0.5,0,0.9,0.3,0.9,0.8l0,0.1h0.7l0-0.1
			c0-0.9-0.6-1.3-1.6-1.3c-0.5,0-1.6,0.1-1.6,1.3c0,0.9,0.8,1.1,1.5,1.3l0,0c0.6,0.2,1,0.3,1,0.8c0,0.5-0.4,0.8-1,0.8
			c-0.6,0-1-0.3-1-0.9v-0.1h-0.7v0.1c0,0.9,0.6,1.5,1.7,1.5c1.1,0,1.7-0.5,1.7-1.4C69.7,37.5,68.9,37.3,68.2,37.1z"/>
		<path class="st1" d="M71.9,37.1c-0.6-0.2-1.1-0.3-1.1-0.8c0-0.6,0.7-0.7,0.9-0.7c0.5,0,0.9,0.3,0.9,0.8l0,0.1h0.7l0-0.1
			c0-0.9-0.6-1.3-1.6-1.3c-0.5,0-1.6,0.1-1.6,1.3c0,0.9,0.8,1.1,1.5,1.3l0,0c0.6,0.2,1,0.3,1,0.8c0,0.5-0.4,0.8-1,0.8
			c-0.6,0-1-0.3-1-0.9v-0.1H70v0.1c0,0.9,0.6,1.5,1.7,1.5c1.1,0,1.7-0.5,1.7-1.4C73.4,37.5,72.6,37.3,71.9,37.1z"/>
	</g>
</g>
</svg>
